<svg width="717" height="250" viewBox="0 0 717 250" fill="none" xmlns="http://www.w3.org/2000/svg">
<g filter="url(#filter0_d_25_1212)">
<rect x="140" y="100" width="463" height="2" fill="url(#paint0_linear_25_1212)"/>
</g>
<g filter="url(#filter1_d_25_1212)">
<rect x="139" y="106" width="463" height="2" fill="url(#paint1_linear_25_1212)"/>
</g>
<g filter="url(#filter2_d_25_1212)">
<rect x="140" y="94" width="463" height="2" fill="url(#paint2_linear_25_1212)"/>
</g>
<rect width="658" height="75" transform="matrix(1 0 -0.777146 0.62932 58.2859 188)" fill="#121D23"/>
<rect width="626.561" height="61.9716" transform="matrix(1 0 -0.777146 0.62932 63.2214 195)" fill="#0E1417"/>
<rect width="613.093" height="50.8485" transform="matrix(1 0 -0.777146 0.62932 67.5022 203)" fill="#1D1D1D"/>
<rect width="481.673" height="15.8902" transform="matrix(1 0 -0.777146 0.62932 142.349 0)" fill="#1C1413"/>
<rect width="16" height="157.298" transform="matrix(0.788011 -0.615662 0 1 611 9.85059)" fill="#1C1413"/>
<rect x="468" y="160" width="12" height="59" fill="#110F0F"/>
<rect x="262" y="160" width="12" height="59" fill="#110F0F"/>
<rect x="259" y="160" width="12" height="59" fill="#181818"/>
<g filter="url(#filter3_d_25_1212)">
<path d="M185.37 111.63H187.741V114H185.37V111.63ZM187.741 111.63H190.111V114H187.741V111.63ZM190.111 111.63H192.481V114H190.111V111.63ZM190.111 109.259H192.481V111.63H190.111V109.259ZM190.111 106.889H192.481V109.259H190.111V106.889ZM190.111 104.519H192.481V106.889H190.111V104.519ZM190.111 102.148H192.481V104.519H190.111V102.148ZM190.111 99.7778H192.481V102.148H190.111V99.7778ZM190.111 97.4074H192.481V99.7778H190.111V97.4074ZM190.111 95.037H192.481V97.4074H190.111V95.037ZM190.111 92.6667H192.481V95.037H190.111V92.6667ZM187.741 92.6667H190.111V95.037H187.741V92.6667ZM187.741 90.2963H190.111V92.6667H187.741V90.2963ZM185.37 92.6667H187.741V95.037H185.37V92.6667ZM185.37 95.037H187.741V97.4074H185.37V95.037ZM185.37 97.4074H187.741V99.7778H185.37V97.4074ZM185.37 99.7778H187.741V102.148H185.37V99.7778ZM185.37 102.148H187.741V104.519H185.37V102.148ZM185.37 104.519H187.741V106.889H185.37V104.519ZM185.37 106.889H187.741V109.259H185.37V106.889ZM185.37 109.259H187.741V111.63H185.37V109.259ZM187.741 109.259H190.111V111.63H187.741V109.259ZM187.741 106.889H190.111V109.259H187.741V106.889ZM187.741 104.519H190.111V106.889H187.741V104.519ZM185.37 90.2963H187.741V92.6667H185.37V90.2963ZM190.111 90.2963H192.481V92.6667H190.111V90.2963ZM187.741 95.037H190.111V97.4074H187.741V95.037ZM187.741 97.4074H190.111V99.7778H187.741V97.4074ZM187.741 99.7778H190.111V102.148H187.741V99.7778ZM187.741 102.148H190.111V104.519H187.741V102.148ZM185.37 78.4444H187.741V80.8148H185.37V78.4444ZM187.741 78.4444H190.111V80.8148H187.741V78.4444ZM190.111 78.4444H192.481V80.8148H190.111V78.4444ZM190.111 80.8148H192.481V83.1852H190.111V80.8148ZM190.111 83.1852H192.481V85.5556H190.111V83.1852ZM190.111 85.5556H192.481V87.9259H190.111V85.5556ZM190.111 87.9259H192.481V90.2963H190.111V87.9259ZM187.741 87.9259H190.111V90.2963H187.741V87.9259ZM187.741 85.5556H190.111V87.9259H187.741V85.5556ZM187.741 83.1852H190.111V85.5556H187.741V83.1852ZM187.741 80.8148H190.111V83.1852H187.741V80.8148ZM185.37 80.8148H187.741V83.1852H185.37V80.8148ZM185.37 83.1852H187.741V85.5556H185.37V83.1852ZM185.37 85.5556H187.741V87.9259H185.37V85.5556ZM185.37 87.9259H187.741V90.2963H185.37V87.9259ZM199.616 90.2963H197.245V87.9259H199.616V90.2963ZM201.986 90.2963H199.616V87.9259H201.986V90.2963ZM201.986 87.9259H199.616V85.5556H201.986V87.9259ZM201.986 85.5556H199.616V83.1852H201.986V85.5556ZM204.356 85.5556H201.986V83.1852H204.356V85.5556ZM204.356 87.9259H201.986V85.5556H204.356V87.9259ZM204.356 83.1852H201.986V80.8148H204.356V83.1852ZM204.356 80.8148H201.986V78.4444H204.356V80.8148ZM201.986 80.8148H199.616V78.4444H201.986V80.8148ZM199.616 80.8148H197.245V78.4444H199.616V80.8148ZM199.616 83.1852H197.245V80.8148H199.616V83.1852ZM199.616 85.5556H197.245V83.1852H199.616V85.5556ZM201.986 83.1852H199.616V80.8148H201.986V83.1852ZM213.861 87.9259H216.231V90.2963H213.861V87.9259ZM211.491 90.2963H213.861V92.6667H211.491V90.2963ZM211.491 92.6667H213.861V95.037H211.491V92.6667ZM209.12 90.2963H211.491V92.6667H209.12V90.2963ZM209.12 87.9259H211.491V90.2963H209.12V87.9259ZM211.491 87.9259H213.861V90.2963H211.491V87.9259ZM211.491 95.037H213.861V97.4074H211.491V95.037ZM209.12 95.037H211.491V97.4074H209.12V95.037ZM209.12 97.4074H211.491V99.7778H209.12V97.4074ZM209.12 92.6667H211.491V95.037H209.12V92.6667ZM209.12 99.7778H211.491V102.148H209.12V99.7778ZM209.12 102.148H211.491V104.519H209.12V102.148ZM209.12 104.519H211.491V106.889H209.12V104.519ZM209.12 106.889H211.491V109.259H209.12V106.889ZM209.12 109.259H211.491V111.63H209.12V109.259ZM211.491 109.259H213.861V111.63H211.491V109.259ZM213.861 109.259H216.231V111.63H213.861V109.259ZM213.861 111.63H216.231V114H213.861V111.63ZM211.491 111.63H213.861V114H211.491V111.63ZM209.12 111.63H211.491V114H209.12V111.63ZM213.861 106.889H216.231V109.259H213.861V106.889ZM213.861 104.519H216.231V106.889H213.861V104.519ZM213.861 102.148H216.231V104.519H213.861V102.148ZM213.861 99.7778H216.231V102.148H213.861V99.7778ZM213.861 97.4074H216.231V99.7778H213.861V97.4074ZM213.861 95.037H216.231V97.4074H213.861V95.037ZM213.861 92.6667H216.231V95.037H213.861V92.6667ZM213.861 90.2963H216.231V92.6667H213.861V90.2963ZM211.491 97.4074H213.861V99.7778H211.491V97.4074ZM211.491 102.148H213.861V104.519H211.491V102.148ZM211.491 104.519H213.861V106.889H211.491V104.519ZM211.491 106.889H213.861V109.259H211.491V106.889ZM211.491 99.7778H213.861V102.148H211.491V99.7778ZM223.343 111.63H225.713V114H223.343V111.63ZM225.713 111.63H228.083V114H225.713V111.63ZM225.713 109.259H228.083V111.63H225.713V109.259ZM225.713 106.889H228.083V109.259H225.713V106.889ZM225.713 104.519H228.083V106.889H225.713V104.519ZM228.083 104.519H230.454V106.889H228.083V104.519ZM228.083 102.148H230.454V104.519H228.083V102.148ZM228.083 106.889H230.454V109.259H228.083V106.889ZM228.083 109.259H230.454V111.63H228.083V109.259ZM228.083 111.63H230.454V114H228.083V111.63ZM223.343 109.259H225.713V111.63H223.343V109.259ZM223.343 106.889H225.713V109.259H223.343V106.889ZM223.343 104.519H225.713V106.889H223.343V104.519ZM223.343 102.148H225.713V104.519H223.343V102.148ZM223.343 99.7778H225.713V102.148H223.343V99.7778ZM223.343 97.4074H225.713V99.7778H223.343V97.4074ZM223.343 95.037H225.713V97.4074H223.343V95.037ZM223.343 92.6667H225.713V95.037H223.343V92.6667ZM223.343 90.2963H225.713V92.6667H223.343V90.2963ZM220.972 90.2963H223.343V92.6667H220.972V90.2963ZM225.713 92.6667H228.083V95.037H225.713V92.6667ZM225.713 95.037H228.083V97.4074H225.713V95.037ZM225.713 97.4074H228.083V99.7778H225.713V97.4074ZM225.713 99.7778H228.083V102.148H225.713V99.7778ZM225.713 102.148H228.083V104.519H225.713V102.148ZM228.083 99.7778H230.454V102.148H228.083V99.7778ZM228.083 97.4074H230.454V99.7778H228.083V97.4074ZM228.083 95.037H230.454V97.4074H228.083V95.037ZM228.083 92.6667H230.454V95.037H228.083V92.6667ZM225.713 90.2963H228.083V92.6667H225.713V90.2963ZM223.343 87.9259H225.713V90.2963H223.343V87.9259ZM220.972 87.9259H223.343V90.2963H220.972V87.9259ZM218.602 87.9259H220.972V90.2963H218.602V87.9259ZM218.602 90.2963H220.972V92.6667H218.602V90.2963ZM216.231 90.2963H218.602V92.6667H216.231V90.2963ZM216.231 92.6667H218.602V95.037H216.231V92.6667ZM218.602 92.6667H220.972V95.037H218.602V92.6667ZM220.972 92.6667H223.343V95.037H220.972V92.6667ZM216.231 95.037H218.602V97.4074H216.231V95.037ZM237.565 111.63H239.935V114H237.565V111.63ZM239.935 111.63H242.306V114H239.935V111.63ZM239.935 109.259H242.306V111.63H239.935V109.259ZM239.935 106.889H242.306V109.259H239.935V106.889ZM239.935 104.519H242.306V106.889H239.935V104.519ZM242.306 104.519H244.676V106.889H242.306V104.519ZM242.306 102.148H244.676V104.519H242.306V102.148ZM242.306 106.889H244.676V109.259H242.306V106.889ZM242.306 109.259H244.676V111.63H242.306V109.259ZM242.306 111.63H244.676V114H242.306V111.63ZM237.565 109.259H239.935V111.63H237.565V109.259ZM237.565 106.889H239.935V109.259H237.565V106.889ZM237.565 104.519H239.935V106.889H237.565V104.519ZM237.565 102.148H239.935V104.519H237.565V102.148ZM237.565 99.7778H239.935V102.148H237.565V99.7778ZM237.565 97.4074H239.935V99.7778H237.565V97.4074ZM237.565 95.037H239.935V97.4074H237.565V95.037ZM237.565 92.6667H239.935V95.037H237.565V92.6667ZM237.565 90.2963H239.935V92.6667H237.565V90.2963ZM235.194 90.2963H237.565V92.6667H235.194V90.2963ZM239.935 92.6667H242.306V95.037H239.935V92.6667ZM239.935 95.037H242.306V97.4074H239.935V95.037ZM239.935 97.4074H242.306V99.7778H239.935V97.4074ZM239.935 99.7778H242.306V102.148H239.935V99.7778ZM239.935 102.148H242.306V104.519H239.935V102.148ZM242.306 99.7778H244.676V102.148H242.306V99.7778ZM242.306 97.4074H244.676V99.7778H242.306V97.4074ZM242.306 95.037H244.676V97.4074H242.306V95.037ZM242.306 92.6667H244.676V95.037H242.306V92.6667ZM239.935 90.2963H242.306V92.6667H239.935V90.2963ZM237.565 87.9259H239.935V90.2963H237.565V87.9259ZM235.194 87.9259H237.565V90.2963H235.194V87.9259ZM232.824 87.9259H235.194V90.2963H232.824V87.9259ZM232.824 90.2963H235.194V92.6667H232.824V90.2963ZM230.454 90.2963H232.824V92.6667H230.454V90.2963ZM230.454 92.6667H232.824V95.037H230.454V92.6667ZM232.824 92.6667H235.194V95.037H232.824V92.6667ZM235.194 92.6667H237.565V95.037H235.194V92.6667ZM230.454 95.037H232.824V97.4074H230.454V95.037ZM263.683 78.4444H266.053V80.8148H263.683V78.4444ZM266.053 78.4444H268.424V80.8148H266.053V78.4444ZM266.053 80.8148H268.424V83.1852H266.053V80.8148ZM266.053 83.1852H268.424V85.5556H266.053V83.1852ZM266.053 85.5556H268.424V87.9259H266.053V85.5556ZM266.053 87.9259H268.424V90.2963H266.053V87.9259ZM268.424 85.5556H270.794V87.9259H268.424V85.5556ZM268.424 83.1852H270.794V85.5556H268.424V83.1852ZM268.424 80.8148H270.794V83.1852H268.424V80.8148ZM268.424 78.4444H270.794V80.8148H268.424V78.4444ZM263.683 83.1852H266.053V85.5556H263.683V83.1852ZM263.683 80.8148H266.053V83.1852H263.683V80.8148ZM263.683 85.5556H266.053V87.9259H263.683V85.5556ZM263.683 87.9259H266.053V90.2963H263.683V87.9259ZM263.683 90.2963H266.053V92.6667H263.683V90.2963ZM263.683 92.6667H266.053V95.037H263.683V92.6667ZM263.683 95.037H266.053V97.4074H263.683V95.037ZM263.683 97.4074H266.053V99.7778H263.683V97.4074ZM263.683 99.7778H266.053V102.148H263.683V99.7778ZM263.683 102.148H266.053V104.519H263.683V102.148ZM263.683 104.519H266.053V106.889H263.683V104.519ZM263.683 106.889H266.053V109.259H263.683V106.889ZM266.053 106.889H268.424V109.259H266.053V106.889ZM266.053 109.259H268.424V111.63H266.053V109.259ZM266.053 111.63H268.424V114H266.053V111.63ZM263.683 111.63H266.053V114H263.683V111.63ZM263.683 109.259H266.053V111.63H263.683V109.259ZM268.424 111.63H270.794V114H268.424V111.63ZM268.424 109.259H270.794V111.63H268.424V109.259ZM268.424 106.889H270.794V109.259H268.424V106.889ZM268.424 104.519H270.794V106.889H268.424V104.519ZM268.424 102.148H270.794V104.519H268.424V102.148ZM268.424 99.7778H270.794V102.148H268.424V99.7778ZM268.424 97.4074H270.794V99.7778H268.424V97.4074ZM266.053 97.4074H268.424V99.7778H266.053V97.4074ZM266.053 95.037H268.424V97.4074H266.053V95.037ZM266.053 92.6667H268.424V95.037H266.053V92.6667ZM266.053 90.2963H268.424V92.6667H266.053V90.2963ZM268.424 87.9259H270.794V90.2963H268.424V87.9259ZM268.424 90.2963H270.794V92.6667H268.424V90.2963ZM268.424 92.6667H270.794V95.037H268.424V92.6667ZM268.424 95.037H270.794V97.4074H268.424V95.037ZM266.053 99.7778H268.424V102.148H266.053V99.7778ZM266.053 102.148H268.424V104.519H266.053V102.148ZM266.053 104.519H268.424V106.889H266.053V104.519ZM296.868 78.4444H299.238V80.8148H296.868V78.4444ZM296.868 80.8148H299.238V83.1852H296.868V80.8148ZM296.868 83.1852H299.238V85.5556H296.868V83.1852ZM296.868 85.5556H299.238V87.9259H296.868V85.5556ZM296.868 87.9259H299.238V90.2963H296.868V87.9259ZM296.868 90.2963H299.238V92.6667H296.868V90.2963ZM296.868 92.6667H299.238V95.037H296.868V92.6667ZM296.868 95.037H299.238V97.4074H296.868V95.037ZM296.868 97.4074H299.238V99.7778H296.868V97.4074ZM296.868 99.7778H299.238V102.148H296.868V99.7778ZM296.868 102.148H299.238V104.519H296.868V102.148ZM296.868 104.519H299.238V106.889H296.868V104.519ZM296.868 106.889H299.238V109.259H296.868V106.889ZM296.868 109.259H299.238V111.63H296.868V109.259ZM296.868 111.63H299.238V114H296.868V111.63ZM294.498 111.63H296.868V114H294.498V111.63ZM292.127 109.259H294.498V111.63H292.127V109.259ZM292.127 106.889H294.498V109.259H292.127V106.889ZM292.127 111.63H294.498V114H292.127V111.63ZM294.498 109.259H296.868V111.63H294.498V109.259ZM294.498 106.889H296.868V109.259H294.498V106.889ZM294.498 104.519H296.868V106.889H294.498V104.519ZM294.498 102.148H296.868V104.519H294.498V102.148ZM294.498 99.7778H296.868V102.148H294.498V99.7778ZM294.498 97.4074H296.868V99.7778H294.498V97.4074ZM294.498 95.037H296.868V97.4074H294.498V95.037ZM294.498 92.6667H296.868V95.037H294.498V92.6667ZM294.498 90.2963H296.868V92.6667H294.498V90.2963ZM294.498 87.9259H296.868V90.2963H294.498V87.9259ZM294.498 85.5556H296.868V87.9259H294.498V85.5556ZM294.498 83.1852H296.868V85.5556H294.498V83.1852ZM294.498 80.8148H296.868V83.1852H294.498V80.8148ZM294.498 78.4444H296.868V80.8148H294.498V78.4444ZM292.127 78.4444H294.498V80.8148H292.127V78.4444ZM292.127 80.8148H294.498V83.1852H292.127V80.8148ZM292.127 83.1852H294.498V85.5556H292.127V83.1852ZM292.127 85.5556H294.498V87.9259H292.127V85.5556ZM292.127 90.2963H294.498V92.6667H292.127V90.2963ZM292.127 92.6667H294.498V95.037H292.127V92.6667ZM292.127 95.037H294.498V97.4074H292.127V95.037ZM292.127 97.4074H294.498V99.7778H292.127V97.4074ZM292.127 104.519H294.498V106.889H292.127V104.519ZM292.127 102.148H294.498V104.519H292.127V102.148ZM292.127 99.7778H294.498V102.148H292.127V99.7778ZM292.127 87.9259H294.498V90.2963H292.127V87.9259ZM270.794 80.8148H273.164V83.1852H270.794V80.8148ZM270.794 83.1852H273.164V85.5556H270.794V83.1852ZM270.794 85.5556H273.164V87.9259H270.794V85.5556ZM270.794 87.9259H273.164V90.2963H270.794V87.9259ZM270.794 90.2963H273.164V92.6667H270.794V90.2963ZM273.164 83.1852H275.535V85.5556H273.164V83.1852ZM273.164 85.5556H275.535V87.9259H273.164V85.5556ZM273.164 87.9259H275.535V90.2963H273.164V87.9259ZM273.164 90.2963H275.535V92.6667H273.164V90.2963ZM273.164 92.6667H275.535V95.037H273.164V92.6667ZM275.535 85.5556H277.905V87.9259H275.535V85.5556ZM275.535 87.9259H277.905V90.2963H275.535V87.9259ZM275.535 90.2963H277.905V92.6667H275.535V90.2963ZM275.535 92.6667H277.905V95.037H275.535V92.6667ZM275.535 95.037H277.905V97.4074H275.535V95.037ZM277.905 87.9259H280.275V90.2963H277.905V87.9259ZM277.905 90.2963H280.275V92.6667H277.905V90.2963ZM277.905 92.6667H280.275V95.037H277.905V92.6667ZM277.905 95.037H280.275V97.4074H277.905V95.037ZM277.905 97.4074H280.275V99.7778H277.905V97.4074ZM280.275 90.2963H282.646V92.6667H280.275V90.2963ZM280.275 92.6667H282.646V95.037H280.275V92.6667ZM280.275 95.037H282.646V97.4074H280.275V95.037ZM282.646 87.9259H285.016V90.2963H282.646V87.9259ZM282.646 90.2963H285.016V92.6667H282.646V90.2963ZM282.646 92.6667H285.016V95.037H282.646V92.6667ZM285.016 85.5556H287.387V87.9259H285.016V85.5556ZM285.016 87.9259H287.387V90.2963H285.016V87.9259ZM285.016 90.2963H287.387V92.6667H285.016V90.2963ZM289.757 80.8148H292.127V83.1852H289.757V80.8148ZM289.757 83.1852H292.127V85.5556H289.757V83.1852ZM289.757 85.5556H292.127V87.9259H289.757V85.5556ZM289.757 87.9259H292.127V90.2963H289.757V87.9259ZM289.757 90.2963H292.127V92.6667H289.757V90.2963ZM287.387 83.1852H289.757V85.5556H287.387V83.1852ZM287.387 85.5556H289.757V87.9259H287.387V85.5556ZM287.387 87.9259H289.757V90.2963H287.387V87.9259ZM287.387 90.2963H289.757V92.6667H287.387V90.2963ZM287.387 92.6667H289.757V95.037H287.387V92.6667ZM285.016 92.6667H287.387V95.037H285.016V92.6667ZM285.016 95.037H287.387V97.4074H285.016V95.037ZM282.646 95.037H285.016V97.4074H282.646V95.037ZM282.646 97.4074H285.016V99.7778H282.646V97.4074ZM280.275 97.4074H282.646V99.7778H280.275V97.4074ZM280.275 99.7778H282.646V102.148H280.275V99.7778ZM322.958 114H320.588V111.63H322.958V114ZM318.218 114H315.847V111.63H318.218V114ZM315.847 114H313.477V111.63H315.847V114ZM313.477 114H311.106V111.63H313.477V114ZM311.106 114H308.736V111.63H311.106V114ZM308.736 111.63H306.366V109.259H308.736V111.63ZM311.106 111.63H308.736V109.259H311.106V111.63ZM313.477 111.63H311.106V109.259H313.477V111.63ZM315.847 111.63H313.477V109.259H315.847V111.63ZM318.218 111.63H315.847V109.259H318.218V111.63ZM320.588 111.63H318.218V109.259H320.588V111.63ZM322.958 111.63H320.588V109.259H322.958V111.63ZM325.329 111.63H322.958V109.259H325.329V111.63ZM325.329 109.259H322.958V106.889H325.329V109.259ZM322.958 109.259H320.588V106.889H322.958V109.259ZM327.699 109.259H325.329V106.889H327.699V109.259ZM327.699 106.889H325.329V104.519H327.699V106.889ZM327.699 104.519H325.329V102.148H327.699V104.519ZM325.329 104.519H322.958V102.148H325.329V104.519ZM322.958 104.519H320.588V102.148H322.958V104.519ZM322.958 106.889H320.588V104.519H322.958V106.889ZM325.329 106.889H322.958V104.519H325.329V106.889ZM325.329 102.148H322.958V99.7778H325.329V102.148ZM325.329 99.7778H322.958V97.4074H325.329V99.7778ZM325.329 97.4074H322.958V95.037H325.329V97.4074ZM327.699 97.4074H325.329V95.037H327.699V97.4074ZM327.699 95.037H325.329V92.6667H327.699V95.037ZM327.699 99.7778H325.329V97.4074H327.699V99.7778ZM327.699 102.148H325.329V99.7778H327.699V102.148ZM322.958 102.148H320.588V99.7778H322.958V102.148ZM322.958 99.7778H320.588V97.4074H322.958V99.7778ZM322.958 97.4074H320.588V95.037H322.958V97.4074ZM322.958 95.037H320.588V92.6667H322.958V95.037ZM325.329 95.037H322.958V92.6667H325.329V95.037ZM325.329 92.6667H322.958V90.2963H325.329V92.6667ZM322.958 92.6667H320.588V90.2963H322.958V92.6667ZM320.588 92.6667H318.218V90.2963H320.588V92.6667ZM320.588 95.037H318.218V92.6667H320.588V95.037ZM322.958 90.2963H320.588V87.9259H322.958V90.2963ZM320.588 90.2963H318.218V87.9259H320.588V90.2963ZM318.218 90.2963H315.847V87.9259H318.218V90.2963ZM315.847 90.2963H313.477V87.9259H315.847V90.2963ZM313.477 90.2963H311.106V87.9259H313.477V90.2963ZM311.106 90.2963H308.736V87.9259H311.106V90.2963ZM313.477 92.6667H311.106V90.2963H313.477V92.6667ZM315.847 92.6667H313.477V90.2963H315.847V92.6667ZM318.218 92.6667H315.847V90.2963H318.218V92.6667ZM311.106 92.6667H308.736V90.2963H311.106V92.6667ZM308.736 92.6667H306.366V90.2963H308.736V92.6667ZM311.106 95.037H308.736V92.6667H311.106V95.037ZM313.477 95.037H311.106V92.6667H313.477V95.037ZM308.736 95.037H306.366V92.6667H308.736V95.037ZM306.366 95.037H303.995V92.6667H306.366V95.037ZM308.736 106.889H306.366V104.519H308.736V106.889ZM306.366 106.889H303.995V104.519H306.366V106.889ZM306.366 109.259H303.995V106.889H306.366V109.259ZM311.106 106.889H308.736V104.519H311.106V106.889ZM311.106 109.259H308.736V106.889H311.106V109.259ZM308.736 109.259H306.366V106.889H308.736V109.259ZM318.218 95.037H315.847V92.6667H318.218V95.037ZM315.847 95.037H313.477V92.6667H315.847V95.037ZM308.736 104.519H306.366V102.148H308.736V104.519ZM311.106 104.519H308.736V102.148H311.106V104.519ZM318.218 102.148H315.847V99.7778H318.218V102.148ZM315.847 102.148H313.477V99.7778H315.847V102.148ZM313.477 102.148H311.106V99.7778H313.477V102.148ZM311.106 102.148H308.736V99.7778H311.106V102.148ZM320.588 102.148H318.218V99.7778H320.588V102.148ZM325.329 109.259H327.699V111.63H325.329V109.259ZM325.329 111.63H327.699V114H325.329V111.63ZM322.958 111.63H325.329V114H322.958V111.63ZM318.218 97.4074H320.588V99.7778H318.218V97.4074ZM315.847 97.4074H318.218V99.7778H315.847V97.4074ZM313.477 97.4074H315.847V99.7778H313.477V97.4074ZM311.106 97.4074H313.477V99.7778H311.106V97.4074ZM308.736 97.4074H311.106V99.7778H308.736V97.4074ZM306.366 99.7778H308.736V102.148H306.366V99.7778ZM303.995 102.148H306.366V104.519H303.995V102.148ZM311.106 106.889H313.477V109.259H311.106V106.889ZM313.477 106.889H315.847V109.259H313.477V106.889ZM315.847 106.889H318.218V109.259H315.847V106.889ZM318.218 106.889H320.588V109.259H318.218V106.889ZM332.433 78.4444H334.803V80.8148H332.433V78.4444ZM334.803 78.4444H337.174V80.8148H334.803V78.4444ZM337.174 78.4444H339.544V80.8148H337.174V78.4444ZM337.174 80.8148H339.544V83.1852H337.174V80.8148ZM337.174 83.1852H339.544V85.5556H337.174V83.1852ZM337.174 85.5556H339.544V87.9259H337.174V85.5556ZM337.174 87.9259H339.544V90.2963H337.174V87.9259ZM334.803 90.2963H337.174V92.6667H334.803V90.2963ZM334.803 92.6667H337.174V95.037H334.803V92.6667ZM332.433 90.2963H334.803V92.6667H332.433V90.2963ZM332.433 87.9259H334.803V90.2963H332.433V87.9259ZM332.433 85.5556H334.803V87.9259H332.433V85.5556ZM332.433 83.1852H334.803V85.5556H332.433V83.1852ZM332.433 80.8148H334.803V83.1852H332.433V80.8148ZM334.803 80.8148H337.174V83.1852H334.803V80.8148ZM334.803 83.1852H337.174V85.5556H334.803V83.1852ZM334.803 85.5556H337.174V87.9259H334.803V85.5556ZM334.803 87.9259H337.174V90.2963H334.803V87.9259ZM334.803 95.037H337.174V97.4074H334.803V95.037ZM332.433 95.037H334.803V97.4074H332.433V95.037ZM332.433 97.4074H334.803V99.7778H332.433V97.4074ZM332.433 92.6667H334.803V95.037H332.433V92.6667ZM332.433 99.7778H334.803V102.148H332.433V99.7778ZM332.433 102.148H334.803V104.519H332.433V102.148ZM332.433 104.519H334.803V106.889H332.433V104.519ZM332.433 106.889H334.803V109.259H332.433V106.889ZM332.433 109.259H334.803V111.63H332.433V109.259ZM334.803 109.259H337.174V111.63H334.803V109.259ZM337.174 109.259H339.544V111.63H337.174V109.259ZM337.174 111.63H339.544V114H337.174V111.63ZM334.803 111.63H337.174V114H334.803V111.63ZM332.433 111.63H334.803V114H332.433V111.63ZM337.174 106.889H339.544V109.259H337.174V106.889ZM337.174 104.519H339.544V106.889H337.174V104.519ZM337.174 102.148H339.544V104.519H337.174V102.148ZM337.174 99.7778H339.544V102.148H337.174V99.7778ZM337.174 97.4074H339.544V99.7778H337.174V97.4074ZM337.174 95.037H339.544V97.4074H337.174V95.037ZM337.174 92.6667H339.544V95.037H337.174V92.6667ZM337.174 90.2963H339.544V92.6667H337.174V90.2963ZM334.803 97.4074H337.174V99.7778H334.803V97.4074ZM334.803 102.148H337.174V104.519H334.803V102.148ZM334.803 104.519H337.174V106.889H334.803V104.519ZM334.803 106.889H337.174V109.259H334.803V106.889ZM334.803 99.7778H337.174V102.148H334.803V99.7778ZM349.025 111.63H351.396V114H349.025V111.63ZM351.396 111.63H353.766V114H351.396V111.63ZM351.396 109.259H353.766V111.63H351.396V109.259ZM351.396 106.889H353.766V109.259H351.396V106.889ZM351.396 104.519H353.766V106.889H351.396V104.519ZM353.766 104.519H356.137V106.889H353.766V104.519ZM353.766 102.148H356.137V104.519H353.766V102.148ZM353.766 106.889H356.137V109.259H353.766V106.889ZM353.766 109.259H356.137V111.63H353.766V109.259ZM353.766 111.63H356.137V114H353.766V111.63ZM349.025 109.259H351.396V111.63H349.025V109.259ZM349.025 106.889H351.396V109.259H349.025V106.889ZM349.025 104.519H351.396V106.889H349.025V104.519ZM349.025 102.148H351.396V104.519H349.025V102.148ZM349.025 99.7778H351.396V102.148H349.025V99.7778ZM349.025 97.4074H351.396V99.7778H349.025V97.4074ZM349.025 95.037H351.396V97.4074H349.025V95.037ZM349.025 92.6667H351.396V95.037H349.025V92.6667ZM349.025 90.2963H351.396V92.6667H349.025V90.2963ZM346.655 90.2963H349.025V92.6667H346.655V90.2963ZM344.285 90.2963H346.655V92.6667H344.285V90.2963ZM351.396 92.6667H353.766V95.037H351.396V92.6667ZM351.396 95.037H353.766V97.4074H351.396V95.037ZM351.396 97.4074H353.766V99.7778H351.396V97.4074ZM351.396 99.7778H353.766V102.148H351.396V99.7778ZM351.396 102.148H353.766V104.519H351.396V102.148ZM353.766 99.7778H356.137V102.148H353.766V99.7778ZM353.766 97.4074H356.137V99.7778H353.766V97.4074ZM353.766 95.037H356.137V97.4074H353.766V95.037ZM353.766 92.6667H356.137V95.037H353.766V92.6667ZM351.396 90.2963H353.766V92.6667H351.396V90.2963ZM349.025 87.9259H351.396V90.2963H349.025V87.9259ZM346.655 87.9259H349.025V90.2963H346.655V87.9259ZM344.285 87.9259H346.655V90.2963H344.285V87.9259ZM341.914 87.9259H344.285V90.2963H341.914V87.9259ZM341.914 90.2963H344.285V92.6667H341.914V90.2963ZM339.544 90.2963H341.914V92.6667H339.544V90.2963ZM339.544 92.6667H341.914V95.037H339.544V92.6667ZM341.914 92.6667H344.285V95.037H341.914V92.6667ZM344.285 92.6667H346.655V95.037H344.285V92.6667ZM346.655 92.6667H349.025V95.037H346.655V92.6667ZM339.544 95.037H341.914V97.4074H339.544V95.037ZM360.87 78.4444H363.241V80.8148H360.87V78.4444ZM360.87 80.8148H363.241V83.1852H360.87V80.8148ZM360.87 83.1852H363.241V85.5556H360.87V83.1852ZM360.87 90.2963H363.241V92.6667H360.87V90.2963ZM360.87 92.6667H363.241V95.037H360.87V92.6667ZM360.87 95.037H363.241V97.4074H360.87V95.037ZM360.87 97.4074H363.241V99.7778H360.87V97.4074ZM360.87 99.7778H363.241V102.148H360.87V99.7778ZM360.87 102.148H363.241V104.519H360.87V102.148ZM360.87 104.519H363.241V106.889H360.87V104.519ZM360.87 106.889H363.241V109.259H360.87V106.889ZM360.87 109.259H363.241V111.63H360.87V109.259ZM360.87 111.63H363.241V114H360.87V111.63ZM363.241 111.63H365.611V114H363.241V111.63ZM365.611 111.63H367.981V114H365.611V111.63ZM365.611 109.259H367.981V111.63H365.611V109.259ZM365.611 106.889H367.981V109.259H365.611V106.889ZM365.611 104.519H367.981V106.889H365.611V104.519ZM365.611 102.148H367.981V104.519H365.611V102.148ZM365.611 99.7778H367.981V102.148H365.611V99.7778ZM365.611 97.4074H367.981V99.7778H365.611V97.4074ZM365.611 95.037H367.981V97.4074H365.611V95.037ZM365.611 92.6667H367.981V95.037H365.611V92.6667ZM365.611 78.4444H367.981V80.8148H365.611V78.4444ZM363.241 78.4444H365.611V80.8148H363.241V78.4444ZM363.241 80.8148H365.611V83.1852H363.241V80.8148ZM365.611 80.8148H367.981V83.1852H365.611V80.8148ZM365.611 83.1852H367.981V85.5556H365.611V83.1852ZM365.611 90.2963H367.981V92.6667H365.611V90.2963ZM363.241 83.1852H365.611V85.5556H363.241V83.1852ZM363.241 90.2963H365.611V92.6667H363.241V90.2963ZM363.241 92.6667H365.611V95.037H363.241V92.6667ZM363.241 109.259H365.611V111.63H363.241V109.259ZM363.241 106.889H365.611V109.259H363.241V106.889ZM363.241 104.519H365.611V106.889H363.241V104.519ZM363.241 102.148H365.611V104.519H363.241V102.148ZM363.241 99.7778H365.611V102.148H363.241V99.7778ZM363.241 97.4074H365.611V99.7778H363.241V97.4074ZM363.241 95.037H365.611V97.4074H363.241V95.037ZM382.227 80.8148H384.597V83.1852H382.227V80.8148ZM382.227 83.1852H384.597V85.5556H382.227V83.1852ZM379.856 83.1852H382.227V85.5556H379.856V83.1852ZM382.227 85.5556H384.597V87.9259H382.227V85.5556ZM379.856 85.5556H382.227V87.9259H379.856V85.5556ZM377.486 85.5556H379.856V87.9259H377.486V85.5556ZM377.486 87.9259H379.856V90.2963H377.486V87.9259ZM379.856 87.9259H382.227V90.2963H379.856V87.9259ZM382.227 87.9259H384.597V90.2963H382.227V87.9259ZM382.227 90.2963H384.597V92.6667H382.227V90.2963ZM379.856 90.2963H382.227V92.6667H379.856V90.2963ZM377.486 90.2963H379.856V92.6667H377.486V90.2963ZM375.116 90.2963H377.486V92.6667H375.116V90.2963ZM372.745 90.2963H375.116V92.6667H372.745V90.2963ZM372.745 92.6667H375.116V95.037H372.745V92.6667ZM375.116 92.6667H377.486V95.037H375.116V92.6667ZM377.486 92.6667H379.856V95.037H377.486V92.6667ZM379.856 92.6667H382.227V95.037H379.856V92.6667ZM382.227 92.6667H384.597V95.037H382.227V92.6667ZM384.597 92.6667H386.968V95.037H384.597V92.6667ZM386.968 92.6667H389.338V95.037H386.968V92.6667ZM389.338 92.6667H391.708V95.037H389.338V92.6667ZM389.338 90.2963H391.708V92.6667H389.338V90.2963ZM386.968 90.2963H389.338V92.6667H386.968V90.2963ZM384.597 90.2963H386.968V92.6667H384.597V90.2963ZM377.486 95.037H379.856V97.4074H377.486V95.037ZM379.856 95.037H382.227V97.4074H379.856V95.037ZM382.227 95.037H384.597V97.4074H382.227V95.037ZM382.227 97.4074H384.597V99.7778H382.227V97.4074ZM382.227 99.7778H384.597V102.148H382.227V99.7778ZM382.227 102.148H384.597V104.519H382.227V102.148ZM382.227 104.519H384.597V106.889H382.227V104.519ZM379.856 104.519H382.227V106.889H379.856V104.519ZM379.856 102.148H382.227V104.519H379.856V102.148ZM379.856 99.7778H382.227V102.148H379.856V99.7778ZM379.856 97.4074H382.227V99.7778H379.856V97.4074ZM377.486 97.4074H379.856V99.7778H377.486V97.4074ZM377.486 99.7778H379.856V102.148H377.486V99.7778ZM377.486 102.148H379.856V104.519H377.486V102.148ZM377.486 104.519H379.856V106.889H377.486V104.519ZM377.486 106.889H379.856V109.259H377.486V106.889ZM379.856 106.889H382.227V109.259H379.856V106.889ZM382.227 106.889H384.597V109.259H382.227V106.889ZM384.597 106.889H386.968V109.259H384.597V106.889ZM384.597 109.259H386.968V111.63H384.597V109.259ZM382.227 109.259H384.597V111.63H382.227V109.259ZM379.856 109.259H382.227V111.63H379.856V109.259ZM386.968 109.259H389.338V111.63H386.968V109.259ZM389.338 109.259H391.708V111.63H389.338V109.259ZM389.338 111.63H391.708V114H389.338V111.63ZM386.968 111.63H389.338V114H386.968V111.63ZM384.597 111.63H386.968V114H384.597V111.63ZM382.227 111.63H384.597V114H382.227V111.63ZM410.683 78.4444H413.053V80.8148H410.683V78.4444ZM413.053 78.4444H415.424V80.8148H413.053V78.4444ZM413.053 80.8148H415.424V83.1852H413.053V80.8148ZM413.053 83.1852H415.424V85.5556H413.053V83.1852ZM413.053 85.5556H415.424V87.9259H413.053V85.5556ZM413.053 87.9259H415.424V90.2963H413.053V87.9259ZM415.424 85.5556H417.794V87.9259H415.424V85.5556ZM415.424 83.1852H417.794V85.5556H415.424V83.1852ZM415.424 80.8148H417.794V83.1852H415.424V80.8148ZM415.424 78.4444H417.794V80.8148H415.424V78.4444ZM410.683 83.1852H413.053V85.5556H410.683V83.1852ZM410.683 80.8148H413.053V83.1852H410.683V80.8148ZM410.683 85.5556H413.053V87.9259H410.683V85.5556ZM410.683 87.9259H413.053V90.2963H410.683V87.9259ZM410.683 90.2963H413.053V92.6667H410.683V90.2963ZM410.683 92.6667H413.053V95.037H410.683V92.6667ZM410.683 95.037H413.053V97.4074H410.683V95.037ZM410.683 97.4074H413.053V99.7778H410.683V97.4074ZM410.683 99.7778H413.053V102.148H410.683V99.7778ZM410.683 102.148H413.053V104.519H410.683V102.148ZM410.683 104.519H413.053V106.889H410.683V104.519ZM410.683 106.889H413.053V109.259H410.683V106.889ZM413.053 106.889H415.424V109.259H413.053V106.889ZM413.053 109.259H415.424V111.63H413.053V109.259ZM413.053 111.63H415.424V114H413.053V111.63ZM410.683 111.63H413.053V114H410.683V111.63ZM410.683 109.259H413.053V111.63H410.683V109.259ZM415.424 111.63H417.794V114H415.424V111.63ZM415.424 109.259H417.794V111.63H415.424V109.259ZM415.424 106.889H417.794V109.259H415.424V106.889ZM415.424 104.519H417.794V106.889H415.424V104.519ZM415.424 102.148H417.794V104.519H415.424V102.148ZM415.424 99.7778H417.794V102.148H415.424V99.7778ZM415.424 97.4074H417.794V99.7778H415.424V97.4074ZM413.053 97.4074H415.424V99.7778H413.053V97.4074ZM413.053 95.037H415.424V97.4074H413.053V95.037ZM413.053 92.6667H415.424V95.037H413.053V92.6667ZM413.053 90.2963H415.424V92.6667H413.053V90.2963ZM415.424 87.9259H417.794V90.2963H415.424V87.9259ZM415.424 90.2963H417.794V92.6667H415.424V90.2963ZM415.424 92.6667H417.794V95.037H415.424V92.6667ZM415.424 95.037H417.794V97.4074H415.424V95.037ZM413.053 99.7778H415.424V102.148H413.053V99.7778ZM413.053 102.148H415.424V104.519H413.053V102.148ZM413.053 104.519H415.424V106.889H413.053V104.519ZM443.868 78.4444H446.238V80.8148H443.868V78.4444ZM443.868 80.8148H446.238V83.1852H443.868V80.8148ZM443.868 83.1852H446.238V85.5556H443.868V83.1852ZM443.868 85.5556H446.238V87.9259H443.868V85.5556ZM443.868 87.9259H446.238V90.2963H443.868V87.9259ZM443.868 90.2963H446.238V92.6667H443.868V90.2963ZM443.868 92.6667H446.238V95.037H443.868V92.6667ZM443.868 95.037H446.238V97.4074H443.868V95.037ZM443.868 97.4074H446.238V99.7778H443.868V97.4074ZM443.868 99.7778H446.238V102.148H443.868V99.7778ZM443.868 102.148H446.238V104.519H443.868V102.148ZM443.868 104.519H446.238V106.889H443.868V104.519ZM443.868 106.889H446.238V109.259H443.868V106.889ZM443.868 109.259H446.238V111.63H443.868V109.259ZM443.868 111.63H446.238V114H443.868V111.63ZM441.498 111.63H443.868V114H441.498V111.63ZM439.127 109.259H441.498V111.63H439.127V109.259ZM439.127 106.889H441.498V109.259H439.127V106.889ZM439.127 111.63H441.498V114H439.127V111.63ZM441.498 109.259H443.868V111.63H441.498V109.259ZM441.498 106.889H443.868V109.259H441.498V106.889ZM441.498 104.519H443.868V106.889H441.498V104.519ZM441.498 102.148H443.868V104.519H441.498V102.148ZM441.498 99.7778H443.868V102.148H441.498V99.7778ZM441.498 97.4074H443.868V99.7778H441.498V97.4074ZM441.498 95.037H443.868V97.4074H441.498V95.037ZM441.498 92.6667H443.868V95.037H441.498V92.6667ZM441.498 90.2963H443.868V92.6667H441.498V90.2963ZM441.498 87.9259H443.868V90.2963H441.498V87.9259ZM441.498 85.5556H443.868V87.9259H441.498V85.5556ZM441.498 83.1852H443.868V85.5556H441.498V83.1852ZM441.498 80.8148H443.868V83.1852H441.498V80.8148ZM441.498 78.4444H443.868V80.8148H441.498V78.4444ZM439.127 78.4444H441.498V80.8148H439.127V78.4444ZM439.127 80.8148H441.498V83.1852H439.127V80.8148ZM439.127 83.1852H441.498V85.5556H439.127V83.1852ZM439.127 85.5556H441.498V87.9259H439.127V85.5556ZM439.127 90.2963H441.498V92.6667H439.127V90.2963ZM439.127 92.6667H441.498V95.037H439.127V92.6667ZM439.127 95.037H441.498V97.4074H439.127V95.037ZM439.127 97.4074H441.498V99.7778H439.127V97.4074ZM439.127 104.519H441.498V106.889H439.127V104.519ZM439.127 102.148H441.498V104.519H439.127V102.148ZM439.127 99.7778H441.498V102.148H439.127V99.7778ZM439.127 87.9259H441.498V90.2963H439.127V87.9259ZM417.794 80.8148H420.164V83.1852H417.794V80.8148ZM417.794 83.1852H420.164V85.5556H417.794V83.1852ZM417.794 85.5556H420.164V87.9259H417.794V85.5556ZM417.794 87.9259H420.164V90.2963H417.794V87.9259ZM417.794 90.2963H420.164V92.6667H417.794V90.2963ZM420.164 83.1852H422.535V85.5556H420.164V83.1852ZM420.164 85.5556H422.535V87.9259H420.164V85.5556ZM420.164 87.9259H422.535V90.2963H420.164V87.9259ZM420.164 90.2963H422.535V92.6667H420.164V90.2963ZM420.164 92.6667H422.535V95.037H420.164V92.6667ZM422.535 85.5556H424.905V87.9259H422.535V85.5556ZM422.535 87.9259H424.905V90.2963H422.535V87.9259ZM422.535 90.2963H424.905V92.6667H422.535V90.2963ZM422.535 92.6667H424.905V95.037H422.535V92.6667ZM422.535 95.037H424.905V97.4074H422.535V95.037ZM424.905 87.9259H427.275V90.2963H424.905V87.9259ZM424.905 90.2963H427.275V92.6667H424.905V90.2963ZM424.905 92.6667H427.275V95.037H424.905V92.6667ZM424.905 95.037H427.275V97.4074H424.905V95.037ZM424.905 97.4074H427.275V99.7778H424.905V97.4074ZM427.275 90.2963H429.646V92.6667H427.275V90.2963ZM427.275 92.6667H429.646V95.037H427.275V92.6667ZM427.275 95.037H429.646V97.4074H427.275V95.037ZM429.646 87.9259H432.016V90.2963H429.646V87.9259ZM429.646 90.2963H432.016V92.6667H429.646V90.2963ZM429.646 92.6667H432.016V95.037H429.646V92.6667ZM432.016 85.5556H434.387V87.9259H432.016V85.5556ZM432.016 87.9259H434.387V90.2963H432.016V87.9259ZM432.016 90.2963H434.387V92.6667H432.016V90.2963ZM436.757 80.8148H439.127V83.1852H436.757V80.8148ZM436.757 83.1852H439.127V85.5556H436.757V83.1852ZM436.757 85.5556H439.127V87.9259H436.757V85.5556ZM436.757 87.9259H439.127V90.2963H436.757V87.9259ZM436.757 90.2963H439.127V92.6667H436.757V90.2963ZM434.387 83.1852H436.757V85.5556H434.387V83.1852ZM434.387 85.5556H436.757V87.9259H434.387V85.5556ZM434.387 87.9259H436.757V90.2963H434.387V87.9259ZM434.387 90.2963H436.757V92.6667H434.387V90.2963ZM434.387 92.6667H436.757V95.037H434.387V92.6667ZM432.016 92.6667H434.387V95.037H432.016V92.6667ZM432.016 95.037H434.387V97.4074H432.016V95.037ZM429.646 95.037H432.016V97.4074H429.646V95.037ZM429.646 97.4074H432.016V99.7778H429.646V97.4074ZM427.275 97.4074H429.646V99.7778H427.275V97.4074ZM427.275 99.7778H429.646V102.148H427.275V99.7778ZM455.736 87.9259H458.106V90.2963H455.736V87.9259ZM458.106 87.9259H460.477V90.2963H458.106V87.9259ZM460.477 87.9259H462.847V90.2963H460.477V87.9259ZM462.847 87.9259H465.218V90.2963H462.847V87.9259ZM465.218 87.9259H467.588V90.2963H465.218V87.9259ZM467.588 87.9259H469.958V90.2963H467.588V87.9259ZM469.958 90.2963H472.329V92.6667H469.958V90.2963ZM467.588 90.2963H469.958V92.6667H467.588V90.2963ZM465.218 90.2963H467.588V92.6667H465.218V90.2963ZM462.847 90.2963H465.218V92.6667H462.847V90.2963ZM460.477 90.2963H462.847V92.6667H460.477V90.2963ZM458.106 90.2963H460.477V92.6667H458.106V90.2963ZM455.736 90.2963H458.106V92.6667H455.736V90.2963ZM453.366 90.2963H455.736V92.6667H453.366V90.2963ZM453.366 92.6667H455.736V95.037H453.366V92.6667ZM455.736 92.6667H458.106V95.037H455.736V92.6667ZM450.995 92.6667H453.366V95.037H450.995V92.6667ZM450.995 95.037H453.366V97.4074H450.995V95.037ZM450.995 97.4074H453.366V99.7778H450.995V97.4074ZM453.366 97.4074H455.736V99.7778H453.366V97.4074ZM455.736 97.4074H458.106V99.7778H455.736V97.4074ZM455.736 95.037H458.106V97.4074H455.736V95.037ZM453.366 95.037H455.736V97.4074H453.366V95.037ZM453.366 99.7778H455.736V102.148H453.366V99.7778ZM453.366 102.148H455.736V104.519H453.366V102.148ZM453.366 104.519H455.736V106.889H453.366V104.519ZM450.995 104.519H453.366V106.889H450.995V104.519ZM450.995 106.889H453.366V109.259H450.995V106.889ZM450.995 102.148H453.366V104.519H450.995V102.148ZM450.995 99.7778H453.366V102.148H450.995V99.7778ZM455.736 99.7778H458.106V102.148H455.736V99.7778ZM455.736 102.148H458.106V104.519H455.736V102.148ZM455.736 104.519H458.106V106.889H455.736V104.519ZM455.736 106.889H458.106V109.259H455.736V106.889ZM453.366 106.889H455.736V109.259H453.366V106.889ZM453.366 109.259H455.736V111.63H453.366V109.259ZM455.736 109.259H458.106V111.63H455.736V109.259ZM458.106 109.259H460.477V111.63H458.106V109.259ZM458.106 106.889H460.477V109.259H458.106V106.889ZM455.736 111.63H458.106V114H455.736V111.63ZM458.106 111.63H460.477V114H458.106V111.63ZM460.477 111.63H462.847V114H460.477V111.63ZM462.847 111.63H465.218V114H462.847V111.63ZM465.218 111.63H467.588V114H465.218V111.63ZM467.588 111.63H469.958V114H467.588V111.63ZM465.218 109.259H467.588V111.63H465.218V109.259ZM462.847 109.259H465.218V111.63H462.847V109.259ZM460.477 109.259H462.847V111.63H460.477V109.259ZM467.588 109.259H469.958V111.63H467.588V109.259ZM469.958 109.259H472.329V111.63H469.958V109.259ZM467.588 106.889H469.958V109.259H467.588V106.889ZM465.218 106.889H467.588V109.259H465.218V106.889ZM469.958 106.889H472.329V109.259H469.958V106.889ZM472.329 106.889H474.699V109.259H472.329V106.889ZM469.958 95.037H472.329V97.4074H469.958V95.037ZM472.329 95.037H474.699V97.4074H472.329V95.037ZM472.329 92.6667H474.699V95.037H472.329V92.6667ZM467.588 95.037H469.958V97.4074H467.588V95.037ZM467.588 92.6667H469.958V95.037H467.588V92.6667ZM469.958 92.6667H472.329V95.037H469.958V92.6667ZM460.477 106.889H462.847V109.259H460.477V106.889ZM462.847 106.889H465.218V109.259H462.847V106.889ZM472.329 97.4074H474.699V99.7778H472.329V97.4074ZM469.958 97.4074H472.329V99.7778H469.958V97.4074ZM467.588 97.4074H469.958V99.7778H467.588V97.4074ZM460.477 99.7778H462.847V102.148H460.477V99.7778ZM462.847 99.7778H465.218V102.148H462.847V99.7778ZM465.218 99.7778H467.588V102.148H465.218V99.7778ZM467.588 99.7778H469.958V102.148H467.588V99.7778ZM469.958 99.7778H472.329V102.148H469.958V99.7778ZM472.329 99.7778H474.699V102.148H472.329V99.7778ZM458.106 99.7778H460.477V102.148H458.106V99.7778ZM458.106 92.6667H460.477V95.037H458.106V92.6667ZM460.477 92.6667H462.847V95.037H460.477V92.6667ZM462.847 92.6667H465.218V95.037H462.847V92.6667ZM465.218 92.6667H467.588V95.037H465.218V92.6667ZM472.329 102.148H474.699V104.519H472.329V102.148ZM469.958 102.148H472.329V104.519H469.958V102.148ZM465.218 102.148H467.588V104.519H465.218V102.148ZM462.847 102.148H465.218V104.519H462.847V102.148ZM460.477 102.148H462.847V104.519H460.477V102.148ZM458.106 102.148H460.477V104.519H458.106V102.148ZM467.588 102.148H469.958V104.519H467.588V102.148ZM479.433 78.4444H481.803V80.8148H479.433V78.4444ZM481.803 78.4444H484.174V80.8148H481.803V78.4444ZM484.174 78.4444H486.544V80.8148H484.174V78.4444ZM484.174 80.8148H486.544V83.1852H484.174V80.8148ZM484.174 83.1852H486.544V85.5556H484.174V83.1852ZM484.174 85.5556H486.544V87.9259H484.174V85.5556ZM484.174 87.9259H486.544V90.2963H484.174V87.9259ZM481.803 90.2963H484.174V92.6667H481.803V90.2963ZM481.803 92.6667H484.174V95.037H481.803V92.6667ZM479.433 90.2963H481.803V92.6667H479.433V90.2963ZM479.433 87.9259H481.803V90.2963H479.433V87.9259ZM479.433 85.5556H481.803V87.9259H479.433V85.5556ZM479.433 83.1852H481.803V85.5556H479.433V83.1852ZM479.433 80.8148H481.803V83.1852H479.433V80.8148ZM481.803 80.8148H484.174V83.1852H481.803V80.8148ZM481.803 83.1852H484.174V85.5556H481.803V83.1852ZM481.803 85.5556H484.174V87.9259H481.803V85.5556ZM481.803 87.9259H484.174V90.2963H481.803V87.9259ZM481.803 95.037H484.174V97.4074H481.803V95.037ZM479.433 95.037H481.803V97.4074H479.433V95.037ZM479.433 97.4074H481.803V99.7778H479.433V97.4074ZM479.433 92.6667H481.803V95.037H479.433V92.6667ZM479.433 99.7778H481.803V102.148H479.433V99.7778ZM479.433 102.148H481.803V104.519H479.433V102.148ZM479.433 104.519H481.803V106.889H479.433V104.519ZM479.433 106.889H481.803V109.259H479.433V106.889ZM479.433 109.259H481.803V111.63H479.433V109.259ZM481.803 109.259H484.174V111.63H481.803V109.259ZM484.174 109.259H486.544V111.63H484.174V109.259ZM484.174 111.63H486.544V114H484.174V111.63ZM481.803 111.63H484.174V114H481.803V111.63ZM479.433 111.63H481.803V114H479.433V111.63ZM484.174 106.889H486.544V109.259H484.174V106.889ZM484.174 104.519H486.544V106.889H484.174V104.519ZM484.174 102.148H486.544V104.519H484.174V102.148ZM484.174 99.7778H486.544V102.148H484.174V99.7778ZM484.174 97.4074H486.544V99.7778H484.174V97.4074ZM484.174 95.037H486.544V97.4074H484.174V95.037ZM484.174 92.6667H486.544V95.037H484.174V92.6667ZM484.174 90.2963H486.544V92.6667H484.174V90.2963ZM481.803 97.4074H484.174V99.7778H481.803V97.4074ZM481.803 102.148H484.174V104.519H481.803V102.148ZM481.803 104.519H484.174V106.889H481.803V104.519ZM481.803 106.889H484.174V109.259H481.803V106.889ZM481.803 99.7778H484.174V102.148H481.803V99.7778ZM496.025 111.63H498.396V114H496.025V111.63ZM498.396 111.63H500.766V114H498.396V111.63ZM498.396 109.259H500.766V111.63H498.396V109.259ZM498.396 106.889H500.766V109.259H498.396V106.889ZM498.396 104.519H500.766V106.889H498.396V104.519ZM500.766 104.519H503.137V106.889H500.766V104.519ZM500.766 102.148H503.137V104.519H500.766V102.148ZM500.766 106.889H503.137V109.259H500.766V106.889ZM500.766 109.259H503.137V111.63H500.766V109.259ZM500.766 111.63H503.137V114H500.766V111.63ZM496.025 109.259H498.396V111.63H496.025V109.259ZM496.025 106.889H498.396V109.259H496.025V106.889ZM496.025 104.519H498.396V106.889H496.025V104.519ZM496.025 102.148H498.396V104.519H496.025V102.148ZM496.025 99.7778H498.396V102.148H496.025V99.7778ZM496.025 97.4074H498.396V99.7778H496.025V97.4074ZM496.025 95.037H498.396V97.4074H496.025V95.037ZM496.025 92.6667H498.396V95.037H496.025V92.6667ZM496.025 90.2963H498.396V92.6667H496.025V90.2963ZM493.655 90.2963H496.025V92.6667H493.655V90.2963ZM491.285 90.2963H493.655V92.6667H491.285V90.2963ZM498.396 92.6667H500.766V95.037H498.396V92.6667ZM498.396 95.037H500.766V97.4074H498.396V95.037ZM498.396 97.4074H500.766V99.7778H498.396V97.4074ZM498.396 99.7778H500.766V102.148H498.396V99.7778ZM498.396 102.148H500.766V104.519H498.396V102.148ZM500.766 99.7778H503.137V102.148H500.766V99.7778ZM500.766 97.4074H503.137V99.7778H500.766V97.4074ZM500.766 95.037H503.137V97.4074H500.766V95.037ZM500.766 92.6667H503.137V95.037H500.766V92.6667ZM498.396 90.2963H500.766V92.6667H498.396V90.2963ZM496.025 87.9259H498.396V90.2963H496.025V87.9259ZM493.655 87.9259H496.025V90.2963H493.655V87.9259ZM491.285 87.9259H493.655V90.2963H491.285V87.9259ZM488.914 87.9259H491.285V90.2963H488.914V87.9259ZM488.914 90.2963H491.285V92.6667H488.914V90.2963ZM486.544 90.2963H488.914V92.6667H486.544V90.2963ZM486.544 92.6667H488.914V95.037H486.544V92.6667ZM488.914 92.6667H491.285V95.037H488.914V92.6667ZM491.285 92.6667H493.655V95.037H491.285V92.6667ZM493.655 92.6667H496.025V95.037H493.655V92.6667ZM486.544 95.037H488.914V97.4074H486.544V95.037ZM517.352 80.8148H519.722V83.1852H517.352V80.8148ZM517.352 83.1852H519.722V85.5556H517.352V83.1852ZM514.981 83.1852H517.352V85.5556H514.981V83.1852ZM517.352 85.5556H519.722V87.9259H517.352V85.5556ZM514.981 85.5556H517.352V87.9259H514.981V85.5556ZM512.611 85.5556H514.981V87.9259H512.611V85.5556ZM512.611 87.9259H514.981V90.2963H512.611V87.9259ZM514.981 87.9259H517.352V90.2963H514.981V87.9259ZM517.352 87.9259H519.722V90.2963H517.352V87.9259ZM517.352 90.2963H519.722V92.6667H517.352V90.2963ZM514.981 90.2963H517.352V92.6667H514.981V90.2963ZM512.611 90.2963H514.981V92.6667H512.611V90.2963ZM510.241 90.2963H512.611V92.6667H510.241V90.2963ZM507.87 90.2963H510.241V92.6667H507.87V90.2963ZM507.87 92.6667H510.241V95.037H507.87V92.6667ZM510.241 92.6667H512.611V95.037H510.241V92.6667ZM512.611 92.6667H514.981V95.037H512.611V92.6667ZM514.981 92.6667H517.352V95.037H514.981V92.6667ZM517.352 92.6667H519.722V95.037H517.352V92.6667ZM519.722 92.6667H522.093V95.037H519.722V92.6667ZM522.093 92.6667H524.463V95.037H522.093V92.6667ZM524.463 92.6667H526.833V95.037H524.463V92.6667ZM524.463 90.2963H526.833V92.6667H524.463V90.2963ZM522.093 90.2963H524.463V92.6667H522.093V90.2963ZM519.722 90.2963H522.093V92.6667H519.722V90.2963ZM512.611 95.037H514.981V97.4074H512.611V95.037ZM514.981 95.037H517.352V97.4074H514.981V95.037ZM517.352 95.037H519.722V97.4074H517.352V95.037ZM517.352 97.4074H519.722V99.7778H517.352V97.4074ZM517.352 99.7778H519.722V102.148H517.352V99.7778ZM517.352 102.148H519.722V104.519H517.352V102.148ZM517.352 104.519H519.722V106.889H517.352V104.519ZM514.981 104.519H517.352V106.889H514.981V104.519ZM514.981 102.148H517.352V104.519H514.981V102.148ZM514.981 99.7778H517.352V102.148H514.981V99.7778ZM514.981 97.4074H517.352V99.7778H514.981V97.4074ZM512.611 97.4074H514.981V99.7778H512.611V97.4074ZM512.611 99.7778H514.981V102.148H512.611V99.7778ZM512.611 102.148H514.981V104.519H512.611V102.148ZM512.611 104.519H514.981V106.889H512.611V104.519ZM512.611 106.889H514.981V109.259H512.611V106.889ZM514.981 106.889H517.352V109.259H514.981V106.889ZM517.352 106.889H519.722V109.259H517.352V106.889ZM519.722 106.889H522.093V109.259H519.722V106.889ZM519.722 109.259H522.093V111.63H519.722V109.259ZM517.352 109.259H519.722V111.63H517.352V109.259ZM514.981 109.259H517.352V111.63H514.981V109.259ZM522.093 109.259H524.463V111.63H522.093V109.259ZM524.463 109.259H526.833V111.63H524.463V109.259ZM524.463 111.63H526.833V114H524.463V111.63ZM522.093 111.63H524.463V114H522.093V111.63ZM519.722 111.63H522.093V114H519.722V111.63ZM517.352 111.63H519.722V114H517.352V111.63ZM550.521 114H548.15V111.63H550.521V114ZM545.78 114H543.41V111.63H545.78V114ZM543.41 114H541.039V111.63H543.41V114ZM541.039 114H538.669V111.63H541.039V114ZM538.669 114H536.299V111.63H538.669V114ZM536.299 111.63H533.928V109.259H536.299V111.63ZM538.669 111.63H536.299V109.259H538.669V111.63ZM541.039 111.63H538.669V109.259H541.039V111.63ZM543.41 111.63H541.039V109.259H543.41V111.63ZM545.78 111.63H543.41V109.259H545.78V111.63ZM548.15 111.63H545.78V109.259H548.15V111.63ZM550.521 111.63H548.15V109.259H550.521V111.63ZM552.891 111.63H550.521V109.259H552.891V111.63ZM552.891 109.259H550.521V106.889H552.891V109.259ZM550.521 109.259H548.15V106.889H550.521V109.259ZM555.262 109.259H552.891V106.889H555.262V109.259ZM555.262 106.889H552.891V104.519H555.262V106.889ZM555.262 104.519H552.891V102.148H555.262V104.519ZM552.891 104.519H550.521V102.148H552.891V104.519ZM550.521 104.519H548.15V102.148H550.521V104.519ZM550.521 106.889H548.15V104.519H550.521V106.889ZM552.891 106.889H550.521V104.519H552.891V106.889ZM552.891 102.148H550.521V99.7778H552.891V102.148ZM552.891 99.7778H550.521V97.4074H552.891V99.7778ZM552.891 97.4074H550.521V95.037H552.891V97.4074ZM555.262 97.4074H552.891V95.037H555.262V97.4074ZM555.262 95.037H552.891V92.6667H555.262V95.037ZM555.262 99.7778H552.891V97.4074H555.262V99.7778ZM555.262 102.148H552.891V99.7778H555.262V102.148ZM550.521 102.148H548.15V99.7778H550.521V102.148ZM550.521 99.7778H548.15V97.4074H550.521V99.7778ZM550.521 97.4074H548.15V95.037H550.521V97.4074ZM550.521 95.037H548.15V92.6667H550.521V95.037ZM552.891 95.037H550.521V92.6667H552.891V95.037ZM552.891 92.6667H550.521V90.2963H552.891V92.6667ZM550.521 92.6667H548.15V90.2963H550.521V92.6667ZM548.15 92.6667H545.78V90.2963H548.15V92.6667ZM548.15 95.037H545.78V92.6667H548.15V95.037ZM550.521 90.2963H548.15V87.9259H550.521V90.2963ZM548.15 90.2963H545.78V87.9259H548.15V90.2963ZM545.78 90.2963H543.41V87.9259H545.78V90.2963ZM543.41 90.2963H541.039V87.9259H543.41V90.2963ZM541.039 90.2963H538.669V87.9259H541.039V90.2963ZM538.669 90.2963H536.299V87.9259H538.669V90.2963ZM541.039 92.6667H538.669V90.2963H541.039V92.6667ZM543.41 92.6667H541.039V90.2963H543.41V92.6667ZM545.78 92.6667H543.41V90.2963H545.78V92.6667ZM538.669 92.6667H536.299V90.2963H538.669V92.6667ZM536.299 92.6667H533.928V90.2963H536.299V92.6667ZM538.669 95.037H536.299V92.6667H538.669V95.037ZM541.039 95.037H538.669V92.6667H541.039V95.037ZM536.299 95.037H533.928V92.6667H536.299V95.037ZM533.928 95.037H531.558V92.6667H533.928V95.037ZM536.299 106.889H533.928V104.519H536.299V106.889ZM533.928 106.889H531.558V104.519H533.928V106.889ZM533.928 109.259H531.558V106.889H533.928V109.259ZM538.669 106.889H536.299V104.519H538.669V106.889ZM538.669 109.259H536.299V106.889H538.669V109.259ZM536.299 109.259H533.928V106.889H536.299V109.259ZM545.78 95.037H543.41V92.6667H545.78V95.037ZM543.41 95.037H541.039V92.6667H543.41V95.037ZM536.299 104.519H533.928V102.148H536.299V104.519ZM538.669 104.519H536.299V102.148H538.669V104.519ZM545.78 102.148H543.41V99.7778H545.78V102.148ZM543.41 102.148H541.039V99.7778H543.41V102.148ZM541.039 102.148H538.669V99.7778H541.039V102.148ZM538.669 102.148H536.299V99.7778H538.669V102.148ZM548.15 102.148H545.78V99.7778H548.15V102.148ZM552.891 109.259H555.262V111.63H552.891V109.259ZM552.891 111.63H555.262V114H552.891V111.63ZM550.521 111.63H552.891V114H550.521V111.63ZM545.78 97.4074H548.15V99.7778H545.78V97.4074ZM543.41 97.4074H545.78V99.7778H543.41V97.4074ZM541.039 97.4074H543.41V99.7778H541.039V97.4074ZM538.669 97.4074H541.039V99.7778H538.669V97.4074ZM536.299 97.4074H538.669V99.7778H536.299V97.4074ZM533.928 99.7778H536.299V102.148H533.928V99.7778ZM531.558 102.148H533.928V104.519H531.558V102.148ZM538.669 106.889H541.039V109.259H538.669V106.889ZM541.039 106.889H543.41V109.259H541.039V106.889ZM543.41 106.889H545.78V109.259H543.41V106.889ZM545.78 106.889H548.15V109.259H545.78V106.889Z" fill="#FFE99F"/>
</g>
<rect x="465" y="160" width="12" height="59" fill="#181818"/>
<g filter="url(#filter4_d_25_1212)">
<rect x="332.4" y="20" width="7.1" height="64" fill="#FFE99F"/>
</g>
<g filter="url(#filter5_d_25_1212)">
<rect x="496" y="114" width="7" height="43" fill="#FFE99F"/>
</g>
<rect x="135" y="15" width="472" height="147" stroke="#2B1E1D" stroke-width="10"/>
<path d="M657 235.5L716 188L716 198.5L657 247.5L657 235.5Z" fill="#0E1417"/>
<defs>
<filter id="filter0_d_25_1212" x="136" y="96" width="471" height="10" filterUnits="userSpaceOnUse" color-interpolation-filters="sRGB">
<feFlood flood-opacity="0" result="BackgroundImageFix"/>
<feColorMatrix in="SourceAlpha" type="matrix" values="0 0 0 0 0 0 0 0 0 0 0 0 0 0 0 0 0 0 127 0" result="hardAlpha"/>
<feOffset/>
<feGaussianBlur stdDeviation="2"/>
<feComposite in2="hardAlpha" operator="out"/>
<feColorMatrix type="matrix" values="0 0 0 0 0.382129 0 0 0 0 0.382129 0 0 0 0 0.382129 0 0 0 0.25 0"/>
<feBlend mode="normal" in2="BackgroundImageFix" result="effect1_dropShadow_25_1212"/>
<feBlend mode="normal" in="SourceGraphic" in2="effect1_dropShadow_25_1212" result="shape"/>
</filter>
<filter id="filter1_d_25_1212" x="135" y="102" width="471" height="10" filterUnits="userSpaceOnUse" color-interpolation-filters="sRGB">
<feFlood flood-opacity="0" result="BackgroundImageFix"/>
<feColorMatrix in="SourceAlpha" type="matrix" values="0 0 0 0 0 0 0 0 0 0 0 0 0 0 0 0 0 0 127 0" result="hardAlpha"/>
<feOffset/>
<feGaussianBlur stdDeviation="2"/>
<feComposite in2="hardAlpha" operator="out"/>
<feColorMatrix type="matrix" values="0 0 0 0 0.382129 0 0 0 0 0.382129 0 0 0 0 0.382129 0 0 0 0.25 0"/>
<feBlend mode="normal" in2="BackgroundImageFix" result="effect1_dropShadow_25_1212"/>
<feBlend mode="normal" in="SourceGraphic" in2="effect1_dropShadow_25_1212" result="shape"/>
</filter>
<filter id="filter2_d_25_1212" x="136" y="90" width="471" height="10" filterUnits="userSpaceOnUse" color-interpolation-filters="sRGB">
<feFlood flood-opacity="0" result="BackgroundImageFix"/>
<feColorMatrix in="SourceAlpha" type="matrix" values="0 0 0 0 0 0 0 0 0 0 0 0 0 0 0 0 0 0 127 0" result="hardAlpha"/>
<feOffset/>
<feGaussianBlur stdDeviation="2"/>
<feComposite in2="hardAlpha" operator="out"/>
<feColorMatrix type="matrix" values="0 0 0 0 0.382129 0 0 0 0 0.382129 0 0 0 0 0.382129 0 0 0 0.25 0"/>
<feBlend mode="normal" in2="BackgroundImageFix" result="effect1_dropShadow_25_1212"/>
<feBlend mode="normal" in="SourceGraphic" in2="effect1_dropShadow_25_1212" result="shape"/>
</filter>
<filter id="filter3_d_25_1212" x="167.77" y="60.8444" width="405.091" height="70.7556" filterUnits="userSpaceOnUse" color-interpolation-filters="sRGB">
<feFlood flood-opacity="0" result="BackgroundImageFix"/>
<feColorMatrix in="SourceAlpha" type="matrix" values="0 0 0 0 0 0 0 0 0 0 0 0 0 0 0 0 0 0 127 0" result="hardAlpha"/>
<feOffset/>
<feGaussianBlur stdDeviation="8.8"/>
<feComposite in2="hardAlpha" operator="out"/>
<feColorMatrix type="matrix" values="0 0 0 0 1 0 0 0 0 0.913725 0 0 0 0 0.623529 0 0 0 0.5 0"/>
<feBlend mode="normal" in2="BackgroundImageFix" result="effect1_dropShadow_25_1212"/>
<feBlend mode="normal" in="SourceGraphic" in2="effect1_dropShadow_25_1212" result="shape"/>
</filter>
<filter id="filter4_d_25_1212" x="314.8" y="2.4" width="42.3" height="99.2" filterUnits="userSpaceOnUse" color-interpolation-filters="sRGB">
<feFlood flood-opacity="0" result="BackgroundImageFix"/>
<feColorMatrix in="SourceAlpha" type="matrix" values="0 0 0 0 0 0 0 0 0 0 0 0 0 0 0 0 0 0 127 0" result="hardAlpha"/>
<feOffset/>
<feGaussianBlur stdDeviation="8.8"/>
<feComposite in2="hardAlpha" operator="out"/>
<feColorMatrix type="matrix" values="0 0 0 0 1 0 0 0 0 0.913725 0 0 0 0 0.623529 0 0 0 0.5 0"/>
<feBlend mode="normal" in2="BackgroundImageFix" result="effect1_dropShadow_25_1212"/>
<feBlend mode="normal" in="SourceGraphic" in2="effect1_dropShadow_25_1212" result="shape"/>
</filter>
<filter id="filter5_d_25_1212" x="478.4" y="96.4" width="42.2" height="78.2" filterUnits="userSpaceOnUse" color-interpolation-filters="sRGB">
<feFlood flood-opacity="0" result="BackgroundImageFix"/>
<feColorMatrix in="SourceAlpha" type="matrix" values="0 0 0 0 0 0 0 0 0 0 0 0 0 0 0 0 0 0 127 0" result="hardAlpha"/>
<feOffset/>
<feGaussianBlur stdDeviation="8.8"/>
<feComposite in2="hardAlpha" operator="out"/>
<feColorMatrix type="matrix" values="0 0 0 0 1 0 0 0 0 0.913725 0 0 0 0 0.623529 0 0 0 0.5 0"/>
<feBlend mode="normal" in2="BackgroundImageFix" result="effect1_dropShadow_25_1212"/>
<feBlend mode="normal" in="SourceGraphic" in2="effect1_dropShadow_25_1212" result="shape"/>
</filter>
<linearGradient id="paint0_linear_25_1212" x1="371.5" y1="100" x2="371.5" y2="102" gradientUnits="userSpaceOnUse">
<stop stop-color="#141414"/>
<stop offset="0.58" stop-color="#2B1E1D"/>
<stop offset="1" stop-color="#141414"/>
</linearGradient>
<linearGradient id="paint1_linear_25_1212" x1="370.5" y1="106" x2="370.5" y2="108" gradientUnits="userSpaceOnUse">
<stop stop-color="#141414"/>
<stop offset="0.58" stop-color="#2B1E1D"/>
<stop offset="1" stop-color="#141414"/>
</linearGradient>
<linearGradient id="paint2_linear_25_1212" x1="371.5" y1="94" x2="371.5" y2="96" gradientUnits="userSpaceOnUse">
<stop stop-color="#141414"/>
<stop offset="0.58" stop-color="#2B1E1D"/>
<stop offset="1" stop-color="#141414"/>
</linearGradient>
</defs>
</svg>
