<svg width="880" height="310" viewBox="0 0 880 310" fill="none" xmlns="http://www.w3.org/2000/svg">
<rect x="142" y="65.5806" width="232" height="192" fill="#FFE99F"/>
<rect x="613" y="35" width="164" height="179" fill="#FFE99F"/>
<rect x="572" y="143" width="33" height="88" fill="#FFE99F"/>
<rect x="777" y="143" width="33" height="88" fill="#FFE99F"/>
<rect x="543" y="88" width="33" height="37" fill="#FFE99F"/>
<rect x="815" y="89" width="33" height="37" fill="#FFE99F"/>
<path d="M102.177 247.929C103.034 246.435 103.476 244.74 103.459 243.018C103.459 238.581 100.715 234.981 97.3163 234.981C93.9178 234.981 91.1739 238.581 91.1739 243.018C91.1565 244.74 91.5989 246.435 92.4557 247.929C91.6153 249.43 91.174 251.121 91.174 252.841C91.174 254.56 91.6153 256.251 92.4557 257.752C91.6153 259.253 91.174 260.944 91.174 262.663C91.174 264.383 91.6153 266.074 92.4557 267.575C91.6153 269.075 91.174 270.766 91.174 272.486C91.174 274.206 91.6153 275.897 92.4557 277.397C91.5984 278.891 91.1559 280.587 91.1739 282.309C91.1739 286.746 93.9178 290.342 97.3163 290.342C100.715 290.342 103.459 286.746 103.459 282.309C103.476 280.588 103.034 278.894 102.177 277.401C103.017 275.901 103.459 274.21 103.459 272.49C103.459 270.77 103.017 269.079 102.177 267.579C103.017 266.078 103.459 264.387 103.459 262.667C103.459 260.948 103.017 259.257 102.177 257.756C103.017 256.255 103.459 254.564 103.459 252.845C103.459 251.125 103.017 249.434 102.177 247.933V247.929Z" fill="#2B1E1D"/>
<path d="M97.2967 241.232C100.689 241.232 103.439 237.634 103.439 233.195C103.439 228.757 100.689 225.159 97.2967 225.159C93.9043 225.159 91.1543 228.757 91.1543 233.195C91.1543 237.634 93.9043 241.232 97.2967 241.232Z" fill="#3F3D56"/>
<path d="M97.2967 231.409C100.689 231.409 103.439 227.811 103.439 223.373C103.439 218.934 100.689 215.336 97.2967 215.336C93.9043 215.336 91.1543 218.934 91.1543 223.373C91.1543 227.811 93.9043 231.409 97.2967 231.409Z" fill="#3F3D56"/>
<path d="M74.2951 156.161C73.4577 155.091 72.6942 153.966 72.0099 152.792L88.1517 150.145L70.6928 150.274C69.0183 146.633 68.1049 142.688 68.0085 138.682C67.9121 134.676 68.6348 130.692 70.1323 126.975L93.5533 139.116L71.9511 123.25C73.9686 119.744 76.6882 116.691 79.9399 114.283C83.1917 111.874 86.9057 110.162 90.8497 109.252C94.7938 108.343 98.8833 108.256 102.862 108.997C106.842 109.738 110.625 111.292 113.976 113.56C117.328 115.828 120.174 118.763 122.339 122.18C124.504 125.597 125.94 129.424 126.558 133.421C127.175 137.418 126.961 141.5 125.929 145.41C124.896 149.321 123.067 152.976 120.557 156.149C121.864 157.811 122.989 159.609 123.912 161.511L102.961 172.399L125.304 164.906C126.872 169.541 127.26 174.493 126.432 179.314C125.604 184.136 123.586 188.675 120.561 192.522C123.977 196.859 126.103 202.069 126.694 207.556C127.286 213.044 126.321 218.587 123.908 223.551C121.496 228.516 117.733 232.702 113.052 235.631C108.37 238.56 102.958 240.113 97.4339 240.113C91.9102 240.113 86.498 238.56 81.8163 235.631C77.1345 232.702 73.3722 228.516 70.9595 223.551C68.5469 218.587 67.5813 213.044 68.1733 207.556C68.7652 202.069 70.8908 196.859 74.3069 192.522C70.2289 187.338 68.012 180.935 68.012 174.341C68.012 167.747 70.2289 161.345 74.3069 156.161H74.2951Z" fill="#57B894"/>
<path opacity="0.1" d="M126.872 174.341C126.882 180.937 124.664 187.343 120.577 192.522C123.993 196.859 126.118 202.069 126.71 207.556C127.302 213.044 126.337 218.587 123.924 223.551C121.511 228.516 117.749 232.702 113.067 235.631C108.385 238.56 102.973 240.113 97.4496 240.113C91.9259 240.113 86.5137 238.56 81.8319 235.631C77.1502 232.702 73.3879 228.516 70.9752 223.551C68.5626 218.587 67.597 213.044 68.189 207.556C68.7809 202.069 70.9065 196.859 74.3226 192.522C70.3518 187.517 126.872 171.04 126.872 174.341Z" fill="black"/>
<path d="M418.531 258.261C419.183 257.125 419.52 255.835 419.507 254.525C419.507 251.149 417.417 248.415 414.834 248.415C412.251 248.415 410.162 251.157 410.162 254.525C410.149 255.835 410.486 257.125 411.138 258.261C410.498 259.403 410.162 260.689 410.162 261.998C410.162 263.306 410.498 264.593 411.138 265.734C410.498 266.876 410.162 268.162 410.162 269.47C410.162 270.779 410.498 272.065 411.138 273.207C410.498 274.348 410.162 275.633 410.162 276.941C410.162 278.249 410.498 279.535 411.138 280.676C410.486 281.812 410.149 283.102 410.162 284.412C410.162 287.788 412.255 290.526 414.834 290.526C417.414 290.526 419.507 287.784 419.507 284.412C419.519 283.102 419.183 281.812 418.531 280.676C419.171 279.535 419.507 278.249 419.507 276.941C419.507 275.633 419.171 274.348 418.531 273.207C419.171 272.065 419.507 270.779 419.507 269.47C419.507 268.162 419.171 266.876 418.531 265.734C419.171 264.593 419.507 263.306 419.507 261.998C419.507 260.689 419.171 259.403 418.531 258.261Z" fill="#2B1E1D"/>
<path d="M414.834 253.17C417.415 253.17 419.507 250.433 419.507 247.056C419.507 243.679 417.415 240.942 414.834 240.942C412.254 240.942 410.162 243.679 410.162 247.056C410.162 250.433 412.254 253.17 414.834 253.17Z" fill="#3F3D56"/>
<path d="M414.834 245.697C417.415 245.697 419.507 242.96 419.507 239.583C419.507 236.207 417.415 233.469 414.834 233.469C412.254 233.469 410.162 236.207 410.162 239.583C410.162 242.96 412.254 245.697 414.834 245.697Z" fill="#3F3D56"/>
<path d="M397.34 188.457C396.701 187.644 396.12 186.788 395.6 185.895L407.88 183.878L394.596 183.98C393.324 181.209 392.63 178.208 392.556 175.161C392.483 172.113 393.032 169.082 394.169 166.254L411.988 175.493L395.557 163.43C397.097 160.774 399.169 158.464 401.642 156.643C404.115 154.822 406.936 153.529 409.931 152.844C412.926 152.16 416.029 152.098 419.049 152.664C422.068 153.23 424.939 154.41 427.482 156.132C430.025 157.854 432.186 160.081 433.831 162.673C435.476 165.266 436.569 168.169 437.042 171.202C437.515 174.235 437.359 177.332 436.582 180.302C435.806 183.272 434.426 186.05 432.528 188.464C433.525 189.728 434.382 191.095 435.084 192.542L419.142 200.817L436.146 195.107C437.342 198.632 437.638 202.4 437.008 206.068C436.377 209.737 434.84 213.19 432.536 216.115C435.134 219.414 436.75 223.377 437.2 227.551C437.649 231.725 436.914 235.941 435.079 239.717C433.244 243.493 430.382 246.676 426.821 248.904C423.26 251.131 419.143 252.312 414.942 252.312C410.741 252.312 406.624 251.131 403.063 248.904C399.502 246.676 396.64 243.493 394.805 239.717C392.97 235.941 392.235 231.725 392.685 227.551C393.134 223.377 394.75 219.414 397.348 216.115C394.245 212.172 392.557 207.302 392.557 202.286C392.557 197.27 394.245 192.399 397.348 188.457H397.34Z" fill="#57B894"/>
<path opacity="0.1" d="M437.322 202.286C437.33 207.304 435.641 212.177 432.528 216.115C435.126 219.414 436.742 223.377 437.192 227.551C437.641 231.725 436.907 235.941 435.071 239.717C433.236 243.493 430.374 246.676 426.813 248.904C423.252 251.131 419.136 252.312 414.934 252.312C410.733 252.312 406.616 251.131 403.055 248.904C399.494 246.676 396.633 243.493 394.797 239.717C392.962 235.941 392.227 231.725 392.677 227.551C393.126 223.377 394.742 219.414 397.34 216.115C394.338 212.308 437.322 199.775 437.322 202.286Z" fill="black"/>
<path d="M379.963 63.319H301.477V46.3603C301.477 45.8273 301.373 45.2995 301.169 44.8069C300.965 44.3144 300.666 43.8669 300.288 43.49C299.911 43.1132 299.463 42.8143 298.97 42.6106C298.478 42.4068 297.949 42.3022 297.416 42.3028H274.371V24.2357C274.371 23.5585 274.102 22.909 273.623 22.4301C273.143 21.9512 272.493 21.6821 271.815 21.6821H242.115C241.437 21.6832 240.788 21.9525 240.309 22.4312C239.83 22.9099 239.56 23.5588 239.559 24.2357V42.3028H212.477C211.943 42.3012 211.413 42.405 210.919 42.6082C210.425 42.8115 209.976 43.1101 209.598 43.487C209.22 43.864 208.919 44.3118 208.715 44.8048C208.51 45.2979 208.404 45.8265 208.404 46.3603V63.3072H133.579C133.36 63.3082 133.151 63.3958 132.996 63.5506C132.842 63.7055 132.755 63.9151 132.755 64.1336V289.3C132.755 289.518 132.842 289.728 132.996 289.883C133.151 290.038 133.36 290.125 133.579 290.126H183.317C183.536 290.125 183.746 290.038 183.901 289.883C184.056 289.728 184.143 289.519 184.144 289.3V258.994C184.145 258.775 184.233 258.565 184.388 258.41C184.543 258.256 184.753 258.168 184.972 258.167H205.982C206.201 258.168 206.41 258.256 206.564 258.411C206.718 258.566 206.805 258.775 206.805 258.994V289.284C206.805 289.502 206.891 289.711 207.044 289.866C207.198 290.021 207.406 290.109 207.624 290.111H305.918C306.136 290.109 306.345 290.021 306.499 289.866C306.653 289.712 306.74 289.502 306.741 289.284V258.994C306.741 258.776 306.827 258.567 306.981 258.412C307.134 258.257 307.342 258.169 307.56 258.167H328.571C328.79 258.167 329 258.254 329.155 258.409C329.311 258.564 329.398 258.775 329.398 258.994V289.284C329.399 289.503 329.486 289.713 329.641 289.868C329.796 290.022 330.006 290.11 330.225 290.111H379.963C380.182 290.109 380.391 290.021 380.545 289.866C380.699 289.712 380.786 289.502 380.787 289.284V64.1454C380.787 63.9269 380.7 63.7173 380.546 63.5624C380.392 63.4075 380.182 63.32 379.963 63.319ZM175.239 247.663C175.238 247.88 175.151 248.087 174.998 248.241C174.844 248.394 174.636 248.481 174.419 248.482H143.696C143.588 248.482 143.481 248.461 143.381 248.42C143.281 248.38 143.19 248.319 143.114 248.243C143.037 248.167 142.977 248.077 142.935 247.977C142.894 247.878 142.873 247.771 142.873 247.663V237.179C142.872 237.07 142.893 236.963 142.934 236.863C142.975 236.762 143.036 236.671 143.112 236.594C143.189 236.518 143.28 236.457 143.38 236.415C143.48 236.374 143.587 236.352 143.696 236.352H174.419C174.637 236.354 174.846 236.442 174.999 236.597C175.153 236.752 175.239 236.961 175.239 237.179V247.663ZM175.239 220.572C175.239 220.79 175.152 220.998 174.999 221.153C174.845 221.307 174.637 221.394 174.419 221.395H143.696C143.587 221.395 143.48 221.373 143.38 221.332C143.28 221.29 143.189 221.229 143.112 221.153C143.036 221.076 142.975 220.985 142.934 220.884C142.893 220.784 142.872 220.677 142.873 220.568V210.096C142.872 209.987 142.893 209.88 142.934 209.78C142.975 209.679 143.036 209.588 143.112 209.511C143.189 209.435 143.28 209.374 143.38 209.332C143.48 209.291 143.587 209.269 143.696 209.269H174.419C174.527 209.27 174.634 209.291 174.734 209.333C174.834 209.375 174.924 209.436 175 209.513C175.076 209.59 175.137 209.681 175.177 209.781C175.218 209.881 175.239 209.988 175.239 210.096V220.572ZM175.239 193.489C175.239 193.707 175.152 193.915 174.999 194.07C174.845 194.224 174.637 194.311 174.419 194.312H143.696C143.477 194.312 143.268 194.225 143.114 194.071C142.959 193.917 142.873 193.708 142.873 193.489V183.013C142.872 182.904 142.893 182.797 142.934 182.697C142.975 182.596 143.036 182.505 143.112 182.429C143.189 182.352 143.28 182.291 143.38 182.249C143.48 182.208 143.587 182.186 143.696 182.186H174.419C174.637 182.188 174.846 182.276 174.999 182.431C175.153 182.586 175.239 182.795 175.239 183.013V193.489ZM175.239 166.399C175.239 166.506 175.218 166.613 175.177 166.713C175.136 166.813 175.076 166.904 175 166.98C174.924 167.056 174.833 167.117 174.734 167.158C174.634 167.2 174.527 167.221 174.419 167.221H143.696C143.587 167.222 143.48 167.201 143.38 167.16C143.28 167.118 143.189 167.058 143.113 166.981C143.036 166.905 142.975 166.814 142.934 166.714C142.893 166.614 142.872 166.507 142.873 166.399V155.918C142.872 155.81 142.893 155.703 142.934 155.603C142.975 155.503 143.036 155.412 143.113 155.335C143.189 155.259 143.28 155.198 143.38 155.157C143.48 155.116 143.587 155.095 143.696 155.095H174.419C174.527 155.095 174.634 155.117 174.734 155.158C174.833 155.2 174.924 155.26 175 155.337C175.076 155.413 175.136 155.504 175.177 155.604C175.218 155.703 175.239 155.81 175.239 155.918V166.399ZM175.239 139.312C175.239 139.53 175.153 139.739 174.999 139.893C174.846 140.048 174.637 140.136 174.419 140.138H143.696C143.587 140.138 143.48 140.117 143.38 140.075C143.28 140.034 143.189 139.973 143.112 139.896C143.036 139.819 142.975 139.728 142.934 139.628C142.893 139.528 142.872 139.42 142.873 139.312V128.827C142.873 128.719 142.894 128.613 142.935 128.513C142.977 128.413 143.037 128.323 143.114 128.247C143.19 128.171 143.281 128.111 143.381 128.07C143.481 128.029 143.588 128.008 143.696 128.009H174.419C174.636 128.01 174.844 128.096 174.998 128.249C175.151 128.403 175.238 128.61 175.239 128.827V139.312ZM175.239 112.229C175.238 112.446 175.151 112.653 174.998 112.807C174.844 112.96 174.636 113.046 174.419 113.047H143.696C143.588 113.048 143.481 113.027 143.381 112.986C143.281 112.945 143.19 112.885 143.114 112.809C143.037 112.733 142.977 112.643 142.935 112.543C142.894 112.443 142.873 112.337 142.873 112.229V101.744C142.873 101.526 142.959 101.316 143.113 101.161C143.268 101.006 143.477 100.919 143.696 100.918H174.419C174.637 100.92 174.846 101.008 174.999 101.163C175.153 101.317 175.239 101.526 175.239 101.744V112.229ZM175.239 85.1381C175.239 85.2461 175.218 85.3531 175.177 85.4531C175.137 85.5531 175.076 85.6441 175 85.7208C174.924 85.7975 174.834 85.8585 174.734 85.9004C174.634 85.9422 174.527 85.9639 174.419 85.9645H143.696C143.587 85.9645 143.48 85.9431 143.38 85.9015C143.28 85.8599 143.189 85.799 143.112 85.7222C143.036 85.6454 142.975 85.5543 142.934 85.454C142.893 85.3538 142.872 85.2464 142.873 85.1381V74.6613C142.872 74.553 142.893 74.4456 142.934 74.3453C142.975 74.2451 143.036 74.154 143.112 74.0772C143.189 74.0004 143.28 73.9395 143.38 73.8979C143.48 73.8563 143.587 73.8349 143.696 73.8349H174.419C174.527 73.8354 174.634 73.8572 174.734 73.899C174.834 73.9408 174.924 74.0018 175 74.0786C175.076 74.1553 175.137 74.2463 175.177 74.3462C175.218 74.4462 175.239 74.5533 175.239 74.6613V85.1381ZM248.069 247.675C248.069 247.783 248.048 247.889 248.006 247.989C247.965 248.089 247.904 248.179 247.828 248.255C247.751 248.331 247.66 248.391 247.561 248.432C247.461 248.473 247.354 248.494 247.246 248.493H216.526C216.308 248.493 216.099 248.407 215.944 248.254C215.789 248.101 215.701 247.893 215.699 247.675V237.179C215.7 236.96 215.788 236.75 215.942 236.595C216.097 236.441 216.307 236.353 216.526 236.352H247.246C247.354 236.352 247.462 236.374 247.562 236.415C247.662 236.457 247.753 236.518 247.829 236.594C247.906 236.671 247.966 236.762 248.008 236.863C248.049 236.963 248.07 237.07 248.069 237.179V247.675ZM248.069 220.584C248.07 220.692 248.049 220.8 248.008 220.9C247.966 221 247.906 221.091 247.829 221.168C247.753 221.245 247.662 221.306 247.562 221.348C247.462 221.389 247.354 221.41 247.246 221.41H216.526C216.307 221.41 216.096 221.323 215.941 221.168C215.786 221.013 215.699 220.803 215.699 220.584V210.096C215.699 209.876 215.786 209.666 215.941 209.511C216.096 209.356 216.307 209.269 216.526 209.269H247.246C247.354 209.269 247.462 209.291 247.562 209.332C247.662 209.374 247.753 209.435 247.829 209.511C247.906 209.588 247.966 209.679 248.008 209.78C248.049 209.88 248.07 209.987 248.069 210.096V220.584ZM248.069 193.501C248.069 193.719 247.982 193.929 247.828 194.083C247.674 194.237 247.464 194.324 247.246 194.324H216.526C216.307 194.324 216.098 194.237 215.943 194.083C215.788 193.929 215.7 193.72 215.699 193.501V183.013C215.7 182.794 215.788 182.584 215.942 182.429C216.097 182.275 216.307 182.187 216.526 182.186H247.246C247.354 182.186 247.462 182.208 247.562 182.249C247.662 182.291 247.753 182.352 247.829 182.429C247.906 182.505 247.966 182.596 248.008 182.697C248.049 182.797 248.07 182.904 248.069 183.013V193.501ZM248.069 166.41C248.07 166.519 248.049 166.626 248.007 166.726C247.966 166.826 247.906 166.917 247.829 166.993C247.753 167.07 247.662 167.13 247.562 167.171C247.461 167.212 247.354 167.233 247.246 167.233H216.526C216.418 167.233 216.31 167.212 216.21 167.171C216.11 167.13 216.018 167.07 215.942 166.993C215.865 166.917 215.804 166.826 215.762 166.726C215.721 166.626 215.699 166.519 215.699 166.41V155.918C215.699 155.81 215.721 155.702 215.762 155.602C215.804 155.502 215.865 155.411 215.942 155.335C216.018 155.259 216.11 155.198 216.21 155.157C216.31 155.116 216.418 155.095 216.526 155.095H247.246C247.354 155.095 247.461 155.116 247.562 155.157C247.662 155.198 247.753 155.259 247.829 155.335C247.906 155.412 247.966 155.503 248.007 155.603C248.049 155.703 248.07 155.81 248.069 155.918V166.41ZM248.069 139.324C248.07 139.432 248.049 139.539 248.008 139.639C247.966 139.74 247.906 139.831 247.829 139.908C247.753 139.984 247.662 140.045 247.562 140.087C247.462 140.129 247.354 140.15 247.246 140.15H216.526C216.307 140.149 216.097 140.061 215.942 139.907C215.788 139.752 215.7 139.542 215.699 139.324V128.827C215.701 128.609 215.789 128.401 215.944 128.248C216.099 128.095 216.308 128.009 216.526 128.009H247.246C247.354 128.008 247.461 128.029 247.561 128.07C247.66 128.111 247.751 128.171 247.828 128.247C247.904 128.323 247.965 128.413 248.006 128.513C248.048 128.613 248.069 128.719 248.069 128.827V139.324ZM248.069 112.241C248.069 112.348 248.048 112.455 248.006 112.555C247.965 112.654 247.904 112.745 247.828 112.821C247.751 112.897 247.66 112.957 247.561 112.998C247.461 113.039 247.354 113.06 247.246 113.059H216.526C216.308 113.059 216.099 112.973 215.944 112.82C215.789 112.667 215.701 112.458 215.699 112.241V101.744C215.7 101.525 215.788 101.316 215.942 101.161C216.097 101.006 216.307 100.919 216.526 100.918H247.246C247.465 100.919 247.674 101.006 247.828 101.161C247.982 101.316 248.069 101.526 248.069 101.744V112.241ZM248.069 85.1498C248.07 85.2582 248.049 85.3655 248.008 85.4658C247.966 85.566 247.906 85.6571 247.829 85.7339C247.753 85.8107 247.662 85.8716 247.562 85.9132C247.462 85.9548 247.354 85.9762 247.246 85.9762H216.526C216.307 85.9762 216.096 85.8891 215.941 85.7342C215.786 85.5792 215.699 85.369 215.699 85.1498V74.6613C215.699 74.4421 215.786 74.2319 215.941 74.0769C216.096 73.922 216.307 73.8349 216.526 73.8349H247.246C247.354 73.8349 247.462 73.8563 247.562 73.8979C247.662 73.9395 247.753 74.0004 247.829 74.0772C247.906 74.154 247.966 74.2451 248.008 74.3453C248.049 74.4456 248.07 74.553 248.069 74.6613V85.1498ZM297.851 247.687C297.85 247.795 297.829 247.901 297.787 248.001C297.745 248.101 297.684 248.191 297.607 248.267C297.53 248.343 297.439 248.403 297.339 248.444C297.239 248.485 297.132 248.506 297.024 248.505H266.292C266.075 248.505 265.866 248.419 265.712 248.266C265.557 248.112 265.47 247.904 265.469 247.687V237.179C265.469 236.96 265.556 236.75 265.71 236.596C265.864 236.441 266.074 236.353 266.292 236.352H297.012C297.231 236.352 297.442 236.439 297.597 236.594C297.752 236.749 297.839 236.959 297.839 237.179L297.851 247.687ZM297.851 220.596C297.851 220.705 297.83 220.812 297.789 220.913C297.748 221.013 297.687 221.105 297.61 221.181C297.533 221.258 297.442 221.319 297.341 221.36C297.24 221.402 297.133 221.423 297.024 221.422H266.292C266.074 221.421 265.864 221.334 265.71 221.179C265.556 221.024 265.469 220.814 265.469 220.596V210.096C265.469 209.877 265.556 209.667 265.71 209.513C265.864 209.358 266.074 209.27 266.292 209.269H297.012C297.121 209.269 297.229 209.29 297.329 209.331C297.43 209.372 297.521 209.433 297.598 209.51C297.675 209.587 297.736 209.678 297.777 209.779C297.819 209.879 297.84 209.987 297.839 210.096L297.851 220.596ZM297.851 193.513C297.85 193.731 297.762 193.941 297.607 194.095C297.452 194.249 297.242 194.335 297.024 194.335H266.292C266.074 194.334 265.866 194.247 265.711 194.093C265.557 193.939 265.47 193.731 265.469 193.513V183.013C265.469 182.794 265.556 182.585 265.71 182.43C265.864 182.275 266.074 182.187 266.292 182.186H297.012C297.231 182.186 297.442 182.273 297.597 182.428C297.752 182.583 297.839 182.793 297.839 183.013L297.851 193.513ZM297.851 166.422C297.851 166.53 297.829 166.638 297.788 166.738C297.746 166.838 297.685 166.929 297.608 167.005C297.532 167.082 297.44 167.142 297.34 167.183C297.24 167.224 297.132 167.245 297.024 167.245H266.292C266.184 167.245 266.077 167.223 265.977 167.182C265.877 167.141 265.787 167.08 265.71 167.004C265.634 166.927 265.573 166.837 265.532 166.737C265.49 166.637 265.469 166.53 265.469 166.422V155.918C265.469 155.81 265.49 155.703 265.532 155.603C265.573 155.503 265.634 155.413 265.71 155.336C265.787 155.26 265.877 155.199 265.977 155.158C266.077 155.117 266.184 155.095 266.292 155.095H297.012C297.12 155.095 297.228 155.116 297.328 155.157C297.429 155.198 297.52 155.259 297.597 155.335C297.673 155.411 297.734 155.502 297.776 155.602C297.818 155.702 297.839 155.81 297.839 155.918L297.851 166.422ZM297.851 139.335C297.851 139.554 297.764 139.765 297.609 139.92C297.454 140.075 297.243 140.162 297.024 140.162H266.292C266.074 140.161 265.864 140.073 265.71 139.918C265.556 139.763 265.469 139.554 265.469 139.335V128.827C265.47 128.61 265.557 128.402 265.712 128.248C265.866 128.095 266.075 128.009 266.292 128.009H297.012C297.12 128.008 297.227 128.029 297.327 128.07C297.427 128.111 297.518 128.171 297.595 128.247C297.672 128.323 297.733 128.413 297.775 128.513C297.817 128.612 297.839 128.719 297.839 128.827L297.851 139.335ZM297.851 112.252C297.85 112.36 297.829 112.467 297.787 112.567C297.745 112.666 297.684 112.757 297.607 112.833C297.53 112.909 297.439 112.969 297.339 113.01C297.239 113.051 297.132 113.071 297.024 113.071H266.292C266.075 113.071 265.866 112.985 265.712 112.831C265.557 112.678 265.47 112.47 265.469 112.252V101.744C265.47 101.526 265.557 101.317 265.711 101.162C265.865 101.008 266.074 100.92 266.292 100.918H297.012C297.231 100.919 297.441 101.006 297.596 101.161C297.751 101.316 297.838 101.525 297.839 101.744L297.851 112.252ZM297.851 85.1616C297.851 85.2702 297.83 85.3779 297.789 85.4784C297.748 85.5789 297.687 85.6702 297.61 85.7471C297.533 85.8239 297.442 85.8848 297.341 85.9261C297.24 85.9675 297.133 85.9885 297.024 85.988H266.292C266.074 85.9869 265.864 85.8994 265.71 85.7445C265.556 85.5897 265.469 85.3801 265.469 85.1616V74.6613C265.469 74.4428 265.556 74.2332 265.71 74.0783C265.864 73.9235 266.074 73.8359 266.292 73.8349H297.012C297.121 73.8344 297.229 73.8554 297.329 73.8968C297.43 73.9381 297.521 73.9989 297.598 74.0758C297.675 74.1526 297.736 74.2439 297.777 74.3444C297.819 74.4449 297.84 74.5526 297.839 74.6613L297.851 85.1616ZM370.685 247.663C370.683 247.881 370.595 248.089 370.44 248.242C370.285 248.396 370.076 248.482 369.858 248.482H339.127C339.019 248.482 338.911 248.461 338.811 248.421C338.711 248.38 338.62 248.32 338.543 248.244C338.467 248.168 338.406 248.077 338.364 247.978C338.322 247.878 338.3 247.771 338.3 247.663V237.179C338.3 236.959 338.387 236.749 338.542 236.594C338.697 236.439 338.907 236.352 339.127 236.352H369.846C369.956 236.351 370.064 236.372 370.166 236.413C370.267 236.454 370.36 236.514 370.438 236.591C370.516 236.668 370.578 236.759 370.62 236.86C370.663 236.961 370.685 237.069 370.685 237.179V247.663ZM370.685 220.572C370.685 220.792 370.598 221.002 370.443 221.157C370.288 221.312 370.078 221.399 369.858 221.399H339.127C339.018 221.399 338.91 221.378 338.81 221.337C338.709 221.296 338.618 221.235 338.541 221.158C338.464 221.081 338.403 220.99 338.361 220.889C338.32 220.789 338.299 220.681 338.3 220.572V210.096C338.299 209.987 338.32 209.879 338.361 209.779C338.403 209.678 338.464 209.587 338.541 209.51C338.618 209.433 338.709 209.372 338.81 209.331C338.91 209.29 339.018 209.269 339.127 209.269H369.846C370.066 209.269 370.276 209.356 370.431 209.511C370.586 209.666 370.673 209.876 370.673 210.096L370.685 220.572ZM370.685 193.489C370.684 193.708 370.597 193.917 370.442 194.071C370.287 194.225 370.077 194.312 369.858 194.312H339.127C338.908 194.312 338.698 194.225 338.543 194.071C338.388 193.917 338.301 193.708 338.3 193.489V183.013C338.3 182.793 338.387 182.583 338.542 182.428C338.697 182.273 338.907 182.186 339.127 182.186H369.846C369.956 182.185 370.064 182.206 370.166 182.247C370.267 182.288 370.36 182.348 370.438 182.425C370.516 182.502 370.578 182.593 370.62 182.694C370.663 182.795 370.685 182.903 370.685 183.013V193.489ZM370.685 166.399C370.685 166.507 370.664 166.614 370.622 166.714C370.581 166.814 370.52 166.905 370.443 166.982C370.366 167.058 370.275 167.119 370.174 167.16C370.074 167.201 369.967 167.222 369.858 167.221H339.127C339.018 167.222 338.911 167.201 338.81 167.16C338.71 167.119 338.619 167.058 338.542 166.982C338.465 166.905 338.404 166.814 338.363 166.714C338.321 166.614 338.3 166.507 338.3 166.399V155.918C338.3 155.81 338.321 155.702 338.363 155.602C338.404 155.502 338.465 155.411 338.542 155.335C338.619 155.259 338.71 155.198 338.81 155.157C338.911 155.116 339.018 155.095 339.127 155.095H369.846C369.955 155.095 370.062 155.116 370.163 155.157C370.263 155.198 370.354 155.259 370.431 155.335C370.508 155.411 370.569 155.502 370.61 155.602C370.652 155.702 370.673 155.81 370.673 155.918L370.685 166.399ZM370.685 139.312C370.684 139.531 370.597 139.74 370.442 139.895C370.287 140.05 370.077 140.137 369.858 140.138H339.127C338.907 140.138 338.697 140.051 338.542 139.896C338.387 139.741 338.3 139.531 338.3 139.312V128.827C338.3 128.719 338.322 128.612 338.364 128.513C338.406 128.413 338.467 128.323 338.543 128.247C338.62 128.171 338.711 128.111 338.811 128.07C338.911 128.029 339.019 128.008 339.127 128.009H369.846C370.064 128.009 370.274 128.095 370.428 128.248C370.583 128.401 370.671 128.609 370.673 128.827L370.685 139.312ZM370.685 112.229C370.683 112.447 370.595 112.655 370.44 112.808C370.285 112.961 370.076 113.047 369.858 113.047H339.127C339.019 113.048 338.911 113.027 338.811 112.986C338.711 112.945 338.62 112.885 338.543 112.809C338.467 112.733 338.406 112.643 338.364 112.543C338.322 112.444 338.3 112.337 338.3 112.229V101.744C338.301 101.525 338.388 101.316 338.543 101.161C338.698 101.006 338.908 100.919 339.127 100.918H369.846C369.956 100.917 370.064 100.937 370.166 100.978C370.267 101.019 370.36 101.08 370.438 101.157C370.516 101.234 370.578 101.325 370.62 101.426C370.663 101.527 370.685 101.635 370.685 101.744V112.229ZM370.685 85.1381C370.685 85.3572 370.598 85.5674 370.443 85.7224C370.288 85.8774 370.078 85.9645 369.858 85.9645H339.127C339.018 85.965 338.91 85.944 338.81 85.9026C338.709 85.8613 338.618 85.8004 338.541 85.7236C338.464 85.6467 338.403 85.5554 338.361 85.4549C338.32 85.3544 338.299 85.2467 338.3 85.1381V74.6613C338.299 74.5526 338.32 74.4449 338.361 74.3444C338.403 74.2439 338.464 74.1526 338.541 74.0758C338.618 73.9989 338.709 73.9381 338.81 73.8968C338.91 73.8554 339.018 73.8344 339.127 73.8349H369.846C370.066 73.8349 370.276 73.922 370.431 74.0769C370.586 74.2319 370.673 74.4421 370.673 74.6613L370.685 85.1381Z" fill="#22333B"/>
<path opacity="0.03" d="M166.145 16.6571C163.702 16.1925 161.176 16.4652 158.889 17.4404C157.518 18.0511 156.033 18.3667 154.532 18.3667C153.031 18.3667 151.546 18.0511 150.175 17.4404C146.981 16.0226 142.974 16.0539 139.925 17.6401C139.015 18.1211 138.002 18.3738 136.973 18.3764C132.818 18.3764 129.365 14.1936 128.644 8.67907C129.474 8.07404 130.179 7.31472 130.721 6.44272C133.155 2.52617 136.93 0 141.167 0C145.405 0 149.133 2.45959 151.567 6.35264C152.293 7.52532 153.31 8.49061 154.519 9.15486C155.729 9.81912 157.09 10.1598 158.47 10.1439H158.575C161.888 10.1399 164.753 12.7914 166.145 16.6571Z" fill="black"/>
<path d="M122.337 288C123.144 286.511 122.231 284.686 121.161 283.355C120.09 282.023 118.828 280.644 118.856 278.948C118.895 276.516 121.478 275.079 123.56 273.79C125.093 272.833 126.507 271.697 127.773 270.406C128.303 269.91 128.74 269.324 129.067 268.675C129.494 267.724 129.482 266.643 129.459 265.601C129.367 262.128 129.195 258.658 128.941 255.191" stroke="#3F3D56" stroke-width="4" stroke-miterlimit="10"/>
<path d="M132.869 255.003C132.839 254.367 132.65 253.749 132.318 253.206C131.987 252.662 131.524 252.211 130.972 251.893L130.121 253.573L130.149 251.54C129.376 251.313 128.552 251.337 127.793 251.608C127.035 251.88 126.383 252.385 125.931 253.051C125.479 253.717 125.251 254.509 125.279 255.313C125.307 256.117 125.59 256.891 126.087 257.524C126.585 258.157 127.27 258.616 128.045 258.834C128.821 259.052 129.645 259.018 130.4 258.738C131.154 258.457 131.8 257.944 132.244 257.273C132.688 256.601 132.907 255.806 132.869 255.003Z" fill="#57B894"/>
<path d="M126.088 280.691C125.705 281.436 125.087 282.033 124.329 282.39C123.571 282.747 122.717 282.844 121.898 282.665C121.08 282.486 120.343 282.042 119.804 281.402C119.264 280.761 118.952 279.961 118.915 279.125C118.891 278.6 118.975 278.076 119.162 277.585C119.439 276.866 119.929 276.248 120.567 275.813C121.204 275.379 121.959 275.148 122.73 275.153C123.502 275.157 124.254 275.396 124.887 275.837C125.519 276.279 126.003 276.902 126.272 277.625L123.901 279.555L126.507 278.952C126.51 279.557 126.366 280.154 126.088 280.691Z" fill="#57B894"/>
<path d="M124.218 273.32C123.72 273.343 123.222 273.268 122.753 273.099C122.283 272.93 121.852 272.67 121.483 272.335C121.115 271.999 120.816 271.594 120.604 271.143C120.392 270.692 120.27 270.203 120.247 269.705C120.219 269.112 120.331 268.52 120.577 267.978C120.804 267.471 121.14 267.019 121.562 266.656C121.983 266.292 122.479 266.026 123.015 265.875V267.442L123.873 265.742C124.371 265.719 124.869 265.794 125.339 265.963C125.808 266.132 126.239 266.392 126.608 266.728C126.977 267.063 127.276 267.468 127.488 267.919C127.7 268.37 127.821 268.859 127.844 269.357C127.867 269.794 127.812 270.231 127.683 270.649C127.451 271.397 126.994 272.055 126.374 272.533C125.754 273.011 125.001 273.286 124.218 273.32Z" fill="#57B894"/>
<path d="M133.441 267.191C132.852 267.222 132.264 267.116 131.723 266.881C131.182 266.646 130.703 266.289 130.324 265.837C129.945 265.385 129.677 264.851 129.54 264.278C129.404 263.704 129.402 263.107 129.537 262.533C129.671 261.959 129.937 261.424 130.314 260.97C130.691 260.517 131.168 260.157 131.708 259.92C132.248 259.682 132.836 259.574 133.426 259.603C134.015 259.632 134.589 259.797 135.103 260.086L134.433 261.927L135.813 260.599C136.18 260.934 136.477 261.338 136.687 261.788C136.898 262.237 137.018 262.724 137.04 263.22C137.058 263.571 137.027 263.923 136.946 264.265C136.758 265.067 136.315 265.785 135.683 266.313C135.051 266.841 134.264 267.149 133.441 267.191Z" fill="#57B894"/>
<path opacity="0.1" d="M132.36 256.013C131.481 256.111 130.631 256.381 129.749 256.436C128.867 256.491 127.903 256.279 127.346 255.598C127.087 255.2 126.853 254.787 126.644 254.36C126.404 253.987 126.076 253.679 125.688 253.463C125.443 253.944 125.303 254.472 125.279 255.011C125.254 255.551 125.345 256.089 125.545 256.59C125.745 257.092 126.05 257.545 126.439 257.919C126.829 258.293 127.293 258.58 127.802 258.761C128.311 258.942 128.853 259.012 129.392 258.966C129.93 258.921 130.452 258.762 130.924 258.499C131.396 258.236 131.806 257.875 132.127 257.441C132.448 257.007 132.673 256.509 132.787 255.982C132.646 255.99 132.501 255.997 132.36 256.013Z" fill="black"/>
<path opacity="0.1" d="M133.441 267.191C132.786 267.221 132.135 267.082 131.55 266.786C130.965 266.49 130.466 266.048 130.102 265.503C129.738 264.958 129.522 264.328 129.474 263.675C129.426 263.022 129.547 262.367 129.827 261.774C130.13 261.984 130.39 262.25 130.592 262.558C130.818 262.99 131.069 263.408 131.344 263.811C131.936 264.504 132.948 264.731 133.865 264.692C134.782 264.653 135.664 264.387 136.577 264.301C136.703 264.301 136.832 264.301 136.969 264.277C136.778 265.08 136.331 265.799 135.694 266.325C135.057 266.85 134.267 267.155 133.441 267.191Z" fill="black"/>
<path opacity="0.1" d="M124.218 273.32C123.72 273.343 123.222 273.268 122.753 273.099C122.283 272.93 121.852 272.67 121.483 272.335C121.115 271.999 120.816 271.594 120.604 271.143C120.392 270.692 120.27 270.203 120.247 269.705C120.219 269.112 120.331 268.52 120.577 267.978C120.889 268.189 121.162 268.454 121.38 268.761C121.629 269.203 121.904 269.629 122.203 270.038C122.842 270.755 123.92 271.006 124.892 270.982C125.864 270.959 126.739 270.731 127.675 270.657C127.443 271.402 126.986 272.057 126.367 272.534C125.749 273.01 124.998 273.285 124.218 273.32Z" fill="black"/>
<path opacity="0.1" d="M126.088 280.691C125.705 281.436 125.087 282.033 124.329 282.39C123.571 282.747 122.717 282.844 121.898 282.665C121.08 282.486 120.343 282.042 119.804 281.402C119.264 280.761 118.952 279.961 118.915 279.125C118.891 278.6 118.975 278.076 119.162 277.585C119.476 277.79 119.757 278.041 119.996 278.33C120.311 278.797 120.649 279.246 121.012 279.677C121.796 280.437 123.042 280.754 124.148 280.781C124.796 280.789 125.443 280.759 126.088 280.691Z" fill="black"/>
<path d="M116.61 287.365C116.61 287.365 119.608 286.19 120.53 285.552C121.451 284.913 125.143 284.138 125.367 285.16C125.59 286.182 129.851 290.299 126.48 290.326C123.109 290.353 118.613 290.882 117.711 290.326C116.81 289.77 116.61 287.365 116.61 287.365Z" fill="#656380"/>
<path opacity="0.2" d="M126.527 289.966C123.144 289.993 118.664 290.522 117.762 289.966C117.076 289.547 116.802 288.047 116.708 287.353H116.61C116.61 287.353 116.798 289.77 117.699 290.318C118.601 290.866 123.081 290.342 126.468 290.318C127.444 290.318 127.781 289.962 127.766 289.449C127.628 289.766 127.264 289.962 126.527 289.966Z" fill="black"/>
<path d="M331.557 288.211C331.016 287.212 331.632 285.986 332.341 285.078C333.051 284.169 333.909 283.257 333.886 282.117C333.862 280.484 332.126 279.52 330.75 278.655C329.722 278.011 328.774 277.248 327.924 276.383C327.567 276.045 327.272 275.648 327.054 275.208C326.815 274.547 326.725 273.84 326.791 273.14C326.854 270.809 326.97 268.48 327.14 266.153" stroke="#3F3D56" stroke-width="4" stroke-miterlimit="10"/>
<path d="M324.486 266.043C324.506 265.617 324.634 265.202 324.856 264.837C325.079 264.472 325.39 264.169 325.76 263.956L326.332 265.084L326.313 263.717C326.586 263.637 326.871 263.604 327.156 263.619C327.66 263.643 328.146 263.816 328.552 264.115C328.957 264.415 329.265 264.828 329.436 265.303C329.607 265.778 329.633 266.292 329.511 266.782C329.389 267.271 329.125 267.713 328.751 268.053C328.378 268.392 327.912 268.613 327.413 268.687C326.914 268.762 326.403 268.687 325.947 268.472C325.49 268.257 325.108 267.911 324.848 267.479C324.588 267.047 324.462 266.547 324.486 266.043Z" fill="#57B894"/>
<path d="M329.037 283.304C329.305 283.823 329.744 284.234 330.279 284.468C330.814 284.702 331.414 284.745 331.978 284.59C332.541 284.435 333.034 284.091 333.374 283.616C333.714 283.141 333.88 282.563 333.844 281.98C333.808 281.398 333.573 280.845 333.178 280.414C332.783 279.984 332.252 279.703 331.674 279.617C331.096 279.532 330.506 279.648 330.003 279.945C329.5 280.243 329.115 280.704 328.912 281.251L330.507 282.544L328.751 282.152C328.754 282.553 328.852 282.948 329.037 283.304Z" fill="#57B894"/>
<path d="M330.311 278.353C330.646 278.369 330.98 278.319 331.295 278.205C331.611 278.092 331.9 277.917 332.148 277.691C332.395 277.466 332.596 277.194 332.738 276.891C332.88 276.587 332.961 276.259 332.976 275.925C332.999 275.521 332.924 275.118 332.757 274.75C332.604 274.409 332.379 274.106 332.095 273.862C331.812 273.618 331.479 273.44 331.118 273.34V274.39L330.538 273.246C329.862 273.215 329.202 273.453 328.701 273.909C328.201 274.364 327.901 274.999 327.869 275.674C327.857 275.968 327.894 276.262 327.979 276.544C328.132 277.05 328.438 277.496 328.856 277.82C329.274 278.144 329.782 278.33 330.311 278.353Z" fill="#57B894"/>
<path d="M324.102 274.237C324.497 274.255 324.89 274.182 325.252 274.023C325.613 273.863 325.933 273.622 326.185 273.318C326.438 273.015 326.616 272.656 326.706 272.272C326.796 271.888 326.796 271.487 326.705 271.103C326.614 270.719 326.435 270.361 326.182 270.058C325.929 269.754 325.609 269.514 325.247 269.355C324.886 269.197 324.492 269.124 324.097 269.143C323.702 269.163 323.318 269.273 322.973 269.466L323.424 270.7L322.499 269.811C322.002 270.265 321.706 270.898 321.676 271.57C321.663 271.806 321.684 272.044 321.738 272.275C321.865 272.814 322.165 273.297 322.591 273.651C323.018 274.005 323.548 274.211 324.102 274.237Z" fill="#57B894"/>
<path opacity="0.1" d="M324.823 266.733C325.411 266.795 325.999 266.979 326.575 267.015C326.872 267.052 327.173 267.019 327.454 266.919C327.736 266.818 327.989 266.652 328.194 266.435C328.368 266.167 328.526 265.89 328.669 265.605C328.829 265.354 329.048 265.147 329.308 265.002C329.51 265.394 329.605 265.833 329.582 266.274C329.551 266.891 329.297 267.476 328.867 267.919C328.437 268.363 327.861 268.636 327.245 268.687C326.629 268.738 326.015 268.564 325.518 268.198C325.021 267.831 324.674 267.297 324.541 266.694C324.639 266.713 324.733 266.721 324.823 266.733Z" fill="black"/>
<path opacity="0.1" d="M324.102 274.237C324.542 274.258 324.98 274.166 325.373 273.968C325.767 273.769 326.102 273.473 326.346 273.107C326.591 272.741 326.736 272.317 326.768 271.879C326.8 271.44 326.717 271 326.528 270.602C326.318 270.743 326.138 270.924 325.999 271.135C325.849 271.426 325.68 271.707 325.494 271.977C325.274 272.195 325.008 272.361 324.716 272.463C324.423 272.566 324.112 272.602 323.804 272.568C323.189 272.541 322.593 272.365 321.981 272.31C321.895 272.31 321.809 272.31 321.723 272.31C321.857 272.845 322.162 273.322 322.591 273.67C323.02 274.017 323.55 274.216 324.102 274.237Z" fill="black"/>
<path opacity="0.1" d="M330.311 278.353C330.646 278.369 330.98 278.319 331.295 278.205C331.611 278.091 331.9 277.917 332.148 277.691C332.395 277.466 332.596 277.194 332.738 276.891C332.88 276.587 332.961 276.259 332.976 275.925C332.999 275.521 332.924 275.118 332.757 274.75C332.548 274.888 332.366 275.063 332.22 275.267C332.052 275.565 331.867 275.853 331.663 276.129C331.424 276.354 331.139 276.526 330.829 276.635C330.518 276.744 330.188 276.786 329.86 276.759C329.225 276.759 328.618 276.591 327.99 276.544C328.143 277.048 328.448 277.492 328.863 277.816C329.279 278.14 329.785 278.328 330.311 278.353Z" fill="black"/>
<path opacity="0.1" d="M329.037 283.304C329.339 283.878 329.848 284.315 330.462 284.528C331.075 284.74 331.746 284.71 332.339 284.445C332.931 284.18 333.4 283.699 333.651 283.101C333.901 282.503 333.914 281.831 333.686 281.224C333.475 281.361 333.287 281.529 333.125 281.721C332.915 282.035 332.687 282.337 332.443 282.626C331.852 283.121 331.102 283.385 330.331 283.37C329.898 283.372 329.467 283.349 329.037 283.304Z" fill="black"/>
<path d="M335.407 287.514C335.407 287.514 333.392 286.997 332.784 286.566C332.177 286.135 329.688 285.618 329.539 286.312C329.39 287.005 326.513 289.754 328.786 289.774C331.06 289.793 334.066 289.876 334.666 289.507C335.266 289.139 335.407 287.514 335.407 287.514Z" fill="#656380"/>
<path opacity="0.2" d="M328.743 289.543C331.017 289.543 334.027 289.645 334.623 289.276C335.085 288.998 335.27 287.988 335.328 287.526H335.407C335.407 287.526 335.277 289.151 334.674 289.519C334.07 289.887 331.06 289.801 328.794 289.785C328.135 289.785 327.912 289.547 327.924 289.202C328.006 289.398 328.257 289.543 328.743 289.543Z" fill="black"/>
<path d="M457 289.774H351.164V290.557H457V289.774Z" fill="#3F3D56"/>
<path d="M863.522 130.398V84.4887H838.021V54.6672H820.759V84.4887H795.257V130.398H781.133V27.2H752.494V17.3903H714.438V7.58057H676.774V17.3903H641.072V27.2H610.079V130.006H593.601V84.0963H568.1V54.2748H550.837V84.0963H525.336V130.006H508.858V292.847H546.521V235.166H572.415V292.847H673.636V225.749H717.576V292.847H778.779V293.239H816.443V235.558H842.337V293.239H880V130.398H863.522ZM522.393 150.018H537.302V161.789H522.393V150.018ZM522.59 182.978H537.498V194.75H522.59V182.978ZM537.694 227.71H522.786V215.939H537.694V227.71ZM576.731 121.373H542.206V114.31H576.731V121.373ZM576.731 111.171H542.206V104.108H576.731V111.171ZM576.731 100.969H542.206V93.906H576.731V100.969ZM581.635 150.018H596.543V161.789H581.635V150.018ZM581.831 182.978H596.739V194.75H581.831V182.978ZM596.936 227.71H582.027V215.939H596.936V227.71ZM657.943 208.091H630.48V195.927H657.943V208.091ZM657.943 173.168H630.48V161.004H657.943V173.168ZM657.943 138.246H630.48V126.082H657.943V138.246ZM657.943 103.323H630.48V91.1593H657.943V103.323ZM657.943 68.4008H630.48V56.2367H657.943V68.4008ZM709.337 208.091H681.875V195.927H709.337V208.091ZM709.337 173.168H681.875V161.004H709.337V173.168ZM709.337 138.246H681.875V126.082H709.337V138.246ZM709.337 103.323H681.875V91.1593H709.337V103.323ZM709.337 68.4008H681.875V56.2367H709.337V68.4008ZM760.732 208.091H733.269V195.927H760.732V208.091ZM760.732 173.168H733.269V161.004H760.732V173.168ZM760.732 138.246H733.269V126.082H760.732V138.246ZM760.732 103.323H733.269V91.1593H760.732V103.323ZM760.732 68.4008H733.269V56.2367H760.732V68.4008ZM792.315 150.41H807.223V162.182H792.315V150.41ZM792.511 183.371H807.419V195.142H792.511V183.371ZM807.616 228.103H792.707V216.331H807.616V228.103ZM846.652 121.766H812.127V114.703H846.652V121.766ZM846.652 111.563H812.127V104.501H846.652V111.563ZM846.652 101.361H812.127V94.2984H846.652V101.361ZM851.556 150.41H866.465V162.182H851.556V150.41ZM851.752 183.371H866.661V195.142H851.752V183.371ZM866.857 228.103H851.949V216.331H866.857V228.103Z" fill="#22333B"/>
<path d="M532.079 253.102C531.97 254.654 531.798 256.39 531.532 258.214L536.329 252.894L536.355 252.983C536.062 251.703 535.589 250.47 534.952 249.322L534.983 249.406L532.079 253.102Z" fill="#C6AC8F"/>
<path d="M532.098 252.829L534.911 249.25C534.312 248.157 533.447 247.235 532.395 246.568C532.344 246.538 532.292 246.509 532.24 246.48C532.255 246.903 532.329 249.385 532.098 252.829Z" fill="#C6AC8F"/>
<path d="M529.561 266.864C529.437 267.24 529.309 267.61 529.178 267.973L536.241 263.831L536.251 263.934C536.399 263.29 536.522 262.646 536.62 262.002L529.567 266.911L529.561 266.864Z" fill="#C6AC8F"/>
<path d="M530.543 263.387L536.905 258.14L536.923 258.238C536.945 256.503 536.762 254.771 536.377 253.079L531.489 258.501C531.233 260.21 530.917 261.839 530.543 263.387Z" fill="#C6AC8F"/>
<path d="M531.38 258.398L523.768 249.903L523.809 249.807C523.093 250.814 522.481 251.892 521.982 253.022L530.669 262.273C530.967 260.923 531.199 259.615 531.38 258.398Z" fill="#C6AC8F"/>
<path d="M521.9 253.214L521.9 253.214C521.914 253.183 521.926 253.148 521.94 253.117L521.9 253.214Z" fill="#C6AC8F"/>
<path d="M521.477 254.256L521.438 254.353C521.45 254.32 521.464 254.289 521.477 254.256Z" fill="#C6AC8F"/>
<path d="M530.619 262.498L521.9 253.214C521.753 253.552 521.612 253.899 521.477 254.256L530.388 263.48C530.469 263.151 530.546 262.824 530.619 262.498Z" fill="#C6AC8F"/>
<path d="M536.639 261.878C536.812 260.711 536.907 259.533 536.922 258.352L530.474 263.671C530.219 264.702 529.937 265.693 529.631 266.645L536.625 261.777L536.639 261.878Z" fill="#C6AC8F"/>
<path d="M520.321 262.54L527.378 271.749C527.958 270.628 528.47 269.473 528.912 268.291L520.3 259.245C520.215 260.376 520.205 261.511 520.272 262.643L520.321 262.54Z" fill="#C6AC8F"/>
<path d="M532.111 246.472L532.174 246.444C530.629 245.618 528.955 245.707 527.352 246.544L531.974 252.823C532.223 249.096 532.113 246.509 532.111 246.472Z" fill="#C6AC8F"/>
<path d="M528.949 268.589C528.544 269.653 528.081 270.694 527.563 271.707L534.662 268.034L534.669 268.136C535.204 267.232 535.622 266.264 535.914 265.255C536.026 264.858 536.129 264.46 536.222 264.061L529.074 268.253C529.033 268.365 528.991 268.478 528.949 268.589Z" fill="#C6AC8F"/>
<path d="M531.955 253.101L527.227 246.678L527.271 246.586C525.918 247.369 524.755 248.443 523.866 249.729L531.416 258.155C531.677 256.351 531.847 254.635 531.955 253.101Z" fill="#C6AC8F"/>
<path d="M528.989 268.084C529.515 266.648 529.964 265.184 530.333 263.7L521.4 254.453C521.187 255.03 520.992 255.631 520.814 256.255C520.567 257.15 520.402 258.065 520.322 258.99L528.982 268.088L528.989 268.084Z" fill="#C6AC8F"/>
<path d="M538.164 278.06C537.09 279.186 535.851 280.413 534.483 281.649L541.57 280.611L541.533 280.696C542.124 279.523 542.546 278.273 542.788 276.981L542.758 277.066L538.164 278.06Z" fill="#C6AC8F"/>
<path d="M542.574 273.229C542.554 273.173 542.532 273.118 542.511 273.062C542.253 273.398 540.727 275.357 538.353 277.862L542.802 276.899C543.037 275.676 542.959 274.414 542.574 273.229Z" fill="#C6AC8F"/>
<path d="M527.448 287.053C527.113 287.264 526.779 287.467 526.446 287.663L534.528 288.978L534.469 289.065C534.994 288.663 535.499 288.245 535.986 287.812L527.423 287.093L527.448 287.053Z" fill="#C6AC8F"/>
<path d="M530.422 285.002L538.668 285.018L538.619 285.106C539.743 283.784 540.707 282.333 541.489 280.784L534.267 281.842C532.98 282.994 531.698 284.048 530.422 285.002Z" fill="#C6AC8F"/>
<path d="M527.642 286.929L536.133 287.641L536.079 287.728C536.958 286.939 537.782 286.092 538.546 285.193L530.188 285.176C529.334 285.807 528.485 286.392 527.642 286.929Z" fill="#C6AC8F"/>
<path d="M517.241 291.132C517.301 291.071 517.365 291.005 517.428 290.94C519.159 290.664 520.851 290.181 522.467 289.5L522.698 283.379C522.766 283.224 522.833 283.067 522.897 282.909L522.652 289.423C523.813 288.929 524.944 288.367 526.038 287.738L525.25 276.359C525.31 276.328 525.372 276.296 525.435 276.262L526.222 287.626L526.23 287.627C527.551 286.857 528.83 286.016 530.061 285.109L529.202 273.911C529.263 273.867 529.323 273.823 529.384 273.778L530.243 284.974C530.515 284.772 530.784 284.569 531.047 284.365L530.339 273.03C530.4 272.981 530.46 272.931 530.521 272.88L531.23 284.224C532.32 283.374 533.333 282.515 534.249 281.693L533.803 270.294L533.896 270.246C533.579 270.329 533.258 270.427 532.933 270.533C533.543 269.837 534.092 269.089 534.573 268.298L527.406 272.006C526.91 272.949 526.352 273.858 525.736 274.726C525.608 274.847 525.48 274.968 525.354 275.094L525.363 275.23C525.305 275.308 525.246 275.385 525.187 275.461L525.175 275.277C525.084 275.37 524.996 275.468 524.906 275.564C525.814 274.43 526.611 273.212 527.285 271.927L520.279 262.785C520.327 263.602 520.407 264.425 520.51 265.24C519.859 264.183 519.069 263.217 518.161 262.371L518.216 262.441L516.597 266.854C516.973 268.364 517.346 270.068 517.657 271.885L520.534 265.433C520.547 265.533 520.561 265.633 520.575 265.734L517.705 272.171C517.989 273.875 518.192 275.522 518.315 277.111L521.76 271.698C521.78 271.776 521.799 271.854 521.819 271.931L518.337 277.401C518.412 278.461 518.452 279.491 518.454 280.491L522.665 274.934C522.688 275.007 522.71 275.078 522.731 275.148L518.476 280.764L518.455 280.721C518.454 281.117 518.447 281.508 518.434 281.894L523.184 276.544C523.209 276.619 523.232 276.688 523.254 276.75L518.422 282.192C518.417 282.312 518.412 282.432 518.406 282.55C518.35 283.687 518.231 284.82 518.052 285.944L518.51 285.48C518.423 285.66 518.339 285.838 518.256 286.013L517.995 286.277C517.965 286.449 517.931 286.616 517.899 286.785C517.802 286.997 517.71 287.203 517.62 287.404C517.706 287.018 517.787 286.63 517.855 286.239L508.368 279.711C510.843 286.044 515.504 292.069 515.803 292.452C516.045 291.999 516.265 291.534 516.467 291.058C516.526 291.053 516.584 291.047 516.643 291.041C516.619 291.099 516.594 291.157 516.569 291.215C516.539 291.218 516.509 291.223 516.48 291.226C516.503 291.232 516.53 291.24 516.555 291.246C516.413 291.578 516.266 291.905 516.107 292.22C516.314 292.034 516.63 291.74 517.007 291.366C519.238 291.936 525.248 293.154 530.395 291.355L522.51 289.639C520.822 290.354 519.053 290.855 517.241 291.132ZM522.782 281.153L522.971 280.962L522.96 281.249L522.771 281.44L522.782 281.153Z" fill="#C6AC8F"/>
<path d="M542.416 272.974L542.483 272.993C541.819 271.371 540.474 270.372 538.705 269.994L538.261 277.778C540.829 275.067 542.394 273.004 542.416 272.974Z" fill="#C6AC8F"/>
<path d="M525.877 287.991C524.886 288.552 523.866 289.058 522.821 289.508L530.631 291.207L530.571 291.291C531.56 290.936 532.499 290.457 533.367 289.866C533.707 289.633 534.04 289.392 534.366 289.144L526.188 287.812C526.084 287.872 525.98 287.933 525.877 287.991Z" fill="#C6AC8F"/>
<path d="M534.431 281.529C535.783 280.306 537.007 279.092 538.069 277.98L538.524 270.017L538.616 269.974C537.075 269.714 535.494 269.799 533.989 270.223L534.431 281.529Z" fill="#C6AC8F"/>
<path d="M518.099 262.315C517.193 261.461 516.084 260.851 514.878 260.542C514.82 260.529 514.762 260.518 514.703 260.507C514.849 260.904 515.686 263.242 516.531 266.589L518.099 262.315Z" fill="#C6AC8F"/>
<path d="M517.569 272.106L507.704 266.381L507.713 266.277C507.344 267.456 507.095 268.67 506.97 269.9L518.09 276.011C517.956 274.636 517.773 273.32 517.569 272.106Z" fill="#C6AC8F"/>
<path d="M506.951 270.107L506.951 270.108C506.955 270.073 506.956 270.037 506.959 270.003L506.951 270.107Z" fill="#C6AC8F"/>
<path d="M506.87 271.229L506.863 271.334C506.865 271.298 506.869 271.264 506.87 271.229Z" fill="#C6AC8F"/>
<path d="M518.112 276.241L506.951 270.107C506.916 270.474 506.889 270.848 506.871 271.229L518.196 277.247C518.171 276.909 518.143 276.573 518.112 276.241Z" fill="#C6AC8F"/>
<path d="M518.279 282.279L507.293 276.338C507.562 277.439 507.904 278.522 508.317 279.578L508.331 279.465L517.889 286.041C518.094 284.796 518.224 283.539 518.279 282.279Z" fill="#C6AC8F"/>
<path d="M514.578 260.539L514.63 260.493C512.905 260.185 511.341 260.787 510.074 262.079L516.411 266.621C515.496 263 514.591 260.574 514.578 260.539Z" fill="#C6AC8F"/>
<path d="M516.478 266.891L509.997 262.244L510.011 262.144C508.966 263.307 508.191 264.687 507.743 266.185L517.528 271.864C517.219 270.068 516.85 268.384 516.478 266.891Z" fill="#C6AC8F"/>
<path d="M518.288 282.057C518.345 280.529 518.319 278.998 518.212 277.473L506.858 271.44C506.834 272.055 506.834 272.687 506.858 273.335C506.9 274.263 507.026 275.184 507.235 276.088L518.283 282.063L518.288 282.057Z" fill="#C6AC8F"/>
<path d="M867.912 251.925C867.802 253.477 867.63 255.213 867.365 257.037L872.161 251.717L872.188 251.806C871.894 250.526 871.422 249.293 870.785 248.145L870.815 248.229L867.912 251.925Z" fill="#C6AC8F"/>
<path d="M867.931 251.652L870.743 248.072C870.145 246.98 869.279 246.058 868.227 245.391C868.176 245.36 868.124 245.332 868.072 245.303C868.088 245.726 868.161 248.208 867.931 251.652Z" fill="#C6AC8F"/>
<path d="M865.393 265.687C865.27 266.063 865.142 266.433 865.01 266.796L872.074 262.653L872.084 262.757C872.231 262.113 872.354 261.469 872.453 260.825L865.4 265.734L865.393 265.687Z" fill="#C6AC8F"/>
<path d="M866.375 262.21L872.737 256.963L872.755 257.061C872.778 255.326 872.595 253.594 872.21 251.902L867.322 257.324C867.065 259.033 866.75 260.661 866.375 262.21Z" fill="#C6AC8F"/>
<path d="M867.213 257.221L859.601 248.726L859.641 248.63C858.926 249.637 858.314 250.715 857.815 251.845L866.502 261.096C866.799 259.746 867.032 258.438 867.213 257.221Z" fill="#C6AC8F"/>
<path d="M857.733 252.037L857.733 252.037C857.747 252.006 857.759 251.971 857.773 251.94L857.733 252.037Z" fill="#C6AC8F"/>
<path d="M866.451 261.321L857.733 252.037C857.585 252.375 857.444 252.722 857.309 253.079L866.22 262.303C866.301 261.974 866.378 261.646 866.451 261.321Z" fill="#C6AC8F"/>
<path d="M857.309 253.079L857.27 253.176C857.282 253.143 857.297 253.112 857.309 253.079Z" fill="#C6AC8F"/>
<path d="M872.471 260.701C872.645 259.533 872.74 258.355 872.754 257.175L866.307 262.493C866.051 263.525 865.77 264.516 865.463 265.468L872.458 260.6L872.471 260.701Z" fill="#C6AC8F"/>
<path d="M856.153 261.363L863.21 270.572C863.79 269.451 864.302 268.296 864.744 267.114L856.133 258.068C856.047 259.199 856.038 260.334 856.104 261.466L856.153 261.363Z" fill="#C6AC8F"/>
<path d="M867.943 245.295L868.007 245.267C866.461 244.441 864.788 244.53 863.184 245.367L867.806 251.646C868.055 247.919 867.945 245.332 867.943 245.295Z" fill="#C6AC8F"/>
<path d="M864.781 267.412C864.376 268.476 863.913 269.516 863.395 270.53L870.494 266.856L870.501 266.959C871.036 266.055 871.454 265.087 871.746 264.078C871.859 263.681 871.962 263.283 872.055 262.884L864.907 267.076C864.865 267.188 864.824 267.301 864.781 267.412Z" fill="#C6AC8F"/>
<path d="M867.787 251.924L863.059 245.5L863.103 245.409C861.75 246.192 860.587 247.265 859.698 248.552L867.248 256.977C867.51 255.174 867.679 253.458 867.787 251.924Z" fill="#C6AC8F"/>
<path d="M864.821 266.906C865.348 265.47 865.796 264.007 866.165 262.523L857.232 253.276C857.02 253.853 856.824 254.454 856.646 255.078C856.399 255.973 856.235 256.888 856.154 257.813L864.815 266.91L864.821 266.906Z" fill="#C6AC8F"/>
<path d="M873.997 276.883C872.922 278.008 871.683 279.236 870.315 280.472L877.402 279.434L877.366 279.519C877.956 278.346 878.378 277.095 878.62 275.804L878.59 275.889L873.997 276.883Z" fill="#C6AC8F"/>
<path d="M878.407 272.052C878.386 271.996 878.365 271.94 878.343 271.885C878.086 272.221 876.559 274.179 874.185 276.685L878.634 275.722C878.87 274.499 878.792 273.237 878.407 272.052Z" fill="#C6AC8F"/>
<path d="M863.281 285.876C862.945 286.087 862.611 286.29 862.279 286.485L870.361 287.801L870.302 287.888C870.826 287.486 871.332 287.068 871.818 286.635L863.255 285.916L863.281 285.876Z" fill="#C6AC8F"/>
<path d="M866.254 283.825L874.501 283.841L874.452 283.929C875.576 282.606 876.539 281.156 877.322 279.607L870.099 280.665C868.812 281.817 867.53 282.87 866.254 283.825Z" fill="#C6AC8F"/>
<path d="M863.474 285.752L871.966 286.464L871.912 286.551C872.79 285.762 873.614 284.915 874.379 284.016L866.021 283.999C865.166 284.63 864.317 285.214 863.474 285.752Z" fill="#C6AC8F"/>
<path d="M853.074 289.955C853.134 289.894 853.197 289.828 853.26 289.763C854.992 289.487 856.684 289.004 858.3 288.323L858.53 282.202C858.599 282.047 858.665 281.89 858.73 281.732L858.484 288.246C859.646 287.752 860.777 287.19 861.871 286.561L861.082 275.182C861.143 275.151 861.204 275.119 861.267 275.085L862.055 286.449L862.062 286.45C863.384 285.68 864.662 284.839 865.893 283.931L865.035 272.734C865.095 272.69 865.156 272.646 865.217 272.601L866.076 283.797C866.348 283.595 866.616 283.392 866.88 283.188L866.172 271.853C866.232 271.804 866.293 271.754 866.353 271.703L867.062 283.047C868.152 282.197 869.165 281.338 870.081 280.516L869.636 269.117L869.728 269.069C869.412 269.152 869.09 269.25 868.766 269.356C869.376 268.66 869.924 267.912 870.406 267.12L863.239 270.829C862.743 271.772 862.185 272.68 861.569 273.549C861.44 273.67 861.312 273.791 861.186 273.917L861.196 274.053C861.137 274.13 861.079 274.208 861.02 274.284L861.007 274.1C860.917 274.193 860.828 274.291 860.739 274.387C861.646 273.253 862.443 272.035 863.117 270.749L856.112 261.608C856.16 262.425 856.239 263.248 856.342 264.063C855.692 263.006 854.902 262.04 853.994 261.194L854.049 261.264L852.43 265.677C852.805 267.187 853.178 268.891 853.49 270.708L856.367 264.255C856.38 264.356 856.394 264.456 856.408 264.557L853.537 270.994C853.821 272.698 854.025 274.345 854.147 275.933L857.592 270.521C857.612 270.599 857.632 270.677 857.651 270.753L854.169 276.224C854.245 277.284 854.284 278.314 854.287 279.314L858.498 273.757C858.52 273.83 858.542 273.901 858.564 273.971L854.308 279.587L854.288 279.544C854.286 279.94 854.279 280.331 854.266 280.716L859.016 275.367C859.042 275.442 859.065 275.511 859.087 275.573L854.254 281.015C854.249 281.134 854.245 281.255 854.239 281.373C854.182 282.51 854.064 283.643 853.884 284.767L854.343 284.303C854.256 284.483 854.171 284.66 854.089 284.836L853.828 285.1C853.798 285.272 853.764 285.439 853.731 285.608C853.635 285.82 853.542 286.026 853.453 286.227C853.539 285.841 853.619 285.453 853.688 285.062L844.2 278.534C846.675 284.867 851.337 290.892 851.635 291.275C851.877 290.822 852.097 290.356 852.299 289.881C852.358 289.876 852.417 289.87 852.476 289.864C852.451 289.922 852.426 289.98 852.401 290.038C852.372 290.041 852.342 290.045 852.312 290.048C852.335 290.055 852.363 290.062 852.388 290.069C852.246 290.401 852.098 290.728 851.94 291.043C852.147 290.857 852.462 290.563 852.839 290.189C855.071 290.759 861.081 291.977 866.227 290.177L858.342 288.462C856.655 289.177 854.885 289.678 853.074 289.955ZM858.614 279.976L858.803 279.785L858.793 280.071L858.603 280.263L858.614 279.976Z" fill="#C6AC8F"/>
<path d="M878.249 271.797L878.316 271.816C877.652 270.194 876.307 269.195 874.538 268.816L874.093 276.601C876.661 273.889 878.227 271.827 878.249 271.797Z" fill="#C6AC8F"/>
<path d="M861.709 286.814C860.719 287.375 859.699 287.881 858.653 288.331L866.463 290.03L866.404 290.114C867.392 289.759 868.331 289.28 869.199 288.689C869.539 288.455 869.872 288.215 870.199 287.967L862.02 286.635C861.916 286.695 861.813 286.756 861.709 286.814Z" fill="#C6AC8F"/>
<path d="M870.264 280.351C871.615 279.129 872.84 277.915 873.901 276.803L874.356 268.839L874.449 268.797C872.907 268.537 871.327 268.622 869.822 269.045L870.264 280.351Z" fill="#C6AC8F"/>
<path d="M853.932 261.138C853.025 260.284 851.917 259.674 850.711 259.365C850.652 259.352 850.594 259.341 850.536 259.329C850.681 259.727 851.518 262.064 852.363 265.412L853.932 261.138Z" fill="#C6AC8F"/>
<path d="M853.402 270.929L843.537 265.204L843.546 265.1C843.177 266.279 842.928 267.493 842.802 268.723L853.923 274.834C853.789 273.458 853.606 272.143 853.402 270.929Z" fill="#C6AC8F"/>
<path d="M842.703 270.052L842.695 270.157C842.697 270.121 842.701 270.087 842.703 270.052Z" fill="#C6AC8F"/>
<path d="M842.783 268.93L842.784 268.93C842.787 268.896 842.788 268.86 842.791 268.825L842.783 268.93Z" fill="#C6AC8F"/>
<path d="M853.945 275.064L842.784 268.93C842.748 269.297 842.721 269.671 842.703 270.052L854.028 276.07C854.004 275.731 853.976 275.396 853.945 275.064Z" fill="#C6AC8F"/>
<path d="M854.111 281.101L843.126 275.16C843.394 276.262 843.736 277.345 844.149 278.401L844.164 278.288L853.721 284.864C853.926 283.619 854.057 282.362 854.111 281.101Z" fill="#C6AC8F"/>
<path d="M850.411 259.362L850.462 259.315C848.737 259.008 847.173 259.609 845.907 260.902L852.243 265.444C851.328 261.823 850.424 259.397 850.411 259.362Z" fill="#C6AC8F"/>
<path d="M852.311 265.714L845.829 261.067L845.843 260.966C844.798 262.13 844.024 263.51 843.576 265.008L853.36 270.687C853.051 268.891 852.682 267.207 852.311 265.714Z" fill="#C6AC8F"/>
<path d="M854.121 280.88C854.177 279.352 854.152 277.821 854.044 276.296L842.691 270.263C842.667 270.878 842.667 271.51 842.69 272.158C842.732 273.085 842.858 274.007 843.067 274.911L854.115 280.886L854.121 280.88Z" fill="#C6AC8F"/>
<path d="M880 288.581H0V295.581H880V288.581Z" fill="#232323"/>
<path d="M808.559 232.746H814.627V241.418C813.83 241.418 813.041 241.261 812.305 240.955C811.569 240.65 810.9 240.203 810.336 239.64C809.773 239.076 809.326 238.407 809.021 237.671C808.716 236.934 808.559 236.145 808.559 235.348V232.746Z" fill="#2F2E41"/>
<path d="M853.415 246.902C854.333 245.298 854.807 243.48 854.789 241.632C854.789 236.87 851.841 233.01 848.203 233.01C844.566 233.01 841.618 236.87 841.618 241.632C841.6 243.48 842.074 245.298 842.992 246.902C842.091 248.511 841.618 250.326 841.618 252.171C841.618 254.016 842.091 255.83 842.992 257.44C842.091 259.05 841.618 260.864 841.618 262.71C841.618 264.555 842.091 266.369 842.992 267.979C842.091 269.589 841.618 271.403 841.618 273.248C841.618 275.093 842.091 276.908 842.992 278.518C842.074 280.121 841.6 281.94 841.618 283.787C841.618 288.549 844.566 292.41 848.203 292.41C851.841 292.41 854.789 288.549 854.789 283.787C854.807 281.94 854.333 280.121 853.415 278.518C854.316 276.908 854.789 275.093 854.789 273.248C854.789 271.403 854.316 269.589 853.415 267.979C854.316 266.369 854.789 264.555 854.789 262.71C854.789 260.864 854.316 259.05 853.415 257.44C854.316 255.83 854.789 254.016 854.789 252.171C854.789 250.326 854.316 248.511 853.415 246.902Z" fill="#2B1E1D"/>
<path d="M848.203 239.716C851.841 239.716 854.789 235.856 854.789 231.094C854.789 226.331 851.841 222.471 848.203 222.471C844.566 222.471 841.618 226.331 841.618 231.094C841.618 235.856 844.566 239.716 848.203 239.716Z" fill="#232323"/>
<path d="M848.203 229.177C851.841 229.177 854.789 225.317 854.789 220.555C854.789 215.793 851.841 211.932 848.203 211.932C844.566 211.932 841.618 215.793 841.618 220.555C841.618 225.317 844.566 229.177 848.203 229.177Z" fill="#232323"/>
<path d="M872.857 148.435C873.756 147.29 874.576 146.083 875.309 144.824L858.005 141.982L876.72 142.121C878.515 138.214 879.495 133.982 879.598 129.684C879.702 125.385 878.928 121.111 877.323 117.122L852.214 130.149L875.37 113.125C873.201 109.376 870.282 106.113 866.797 103.541C863.312 100.969 859.335 99.1419 855.113 98.174C850.892 97.2061 846.516 97.1181 842.258 97.9153C838.001 98.7126 833.954 100.378 830.368 102.808C826.782 105.238 823.735 108.381 821.417 112.04C819.098 115.699 817.558 119.796 816.892 124.077C816.226 128.357 816.448 132.729 817.545 136.92C818.642 141.11 820.59 145.03 823.268 148.435C821.865 150.218 820.659 152.147 819.67 154.189L842.132 165.861L818.181 157.821C816.5 162.793 816.084 168.106 816.972 173.279C817.86 178.453 820.024 183.323 823.268 187.449C819.608 192.103 817.331 197.693 816.698 203.58C816.065 209.467 817.1 215.413 819.687 220.739C822.273 226.065 826.306 230.555 831.324 233.697C836.342 236.839 842.142 238.505 848.062 238.505C853.982 238.505 859.783 236.839 864.801 233.697C869.818 230.555 873.851 226.065 876.438 220.739C879.024 215.413 880.06 209.467 879.427 203.58C878.793 197.693 876.517 192.103 872.857 187.449C877.23 181.888 879.608 175.017 879.608 167.942C879.608 160.867 877.23 153.997 872.857 148.435Z" fill="#F2F2F2"/>
<path d="M816.517 167.942C816.506 175.019 818.885 181.893 823.268 187.449C819.608 192.103 817.331 197.693 816.698 203.58C816.065 209.467 817.1 215.413 819.687 220.739C822.273 226.065 826.306 230.555 831.324 233.697C836.342 236.839 842.142 238.505 848.062 238.505C853.982 238.505 859.783 236.839 864.801 233.697C869.818 230.555 873.851 226.065 876.438 220.739C879.024 215.413 880.06 209.467 879.427 203.58C878.793 197.693 876.517 192.103 872.857 187.449C877.085 182.081 816.517 164.401 816.517 167.942Z" fill="#F2F2F2"/>
<path d="M872.857 148.435C873.756 147.29 874.576 146.083 875.309 144.824L858.005 141.982L876.72 142.121C878.515 138.214 879.495 133.982 879.598 129.684C879.702 125.385 878.928 121.111 877.323 117.122L852.214 130.149L875.37 113.125C873.201 109.376 870.282 106.113 866.797 103.541C863.312 100.969 859.335 99.1419 855.113 98.174C850.892 97.2061 846.516 97.1181 842.258 97.9153C838.001 98.7126 833.954 100.378 830.368 102.808C826.782 105.238 823.735 108.381 821.417 112.04C819.098 115.699 817.558 119.796 816.892 124.077C816.226 128.357 816.448 132.729 817.545 136.92C818.642 141.11 820.59 145.03 823.268 148.435C821.865 150.218 820.659 152.147 819.67 154.189L842.132 165.861L818.181 157.821C816.5 162.793 816.084 168.106 816.972 173.279C817.86 178.453 820.024 183.323 823.268 187.449C819.608 192.103 817.331 197.693 816.698 203.58C816.065 209.467 817.1 215.413 819.687 220.739C822.273 226.065 826.306 230.555 831.324 233.697C836.342 236.839 842.142 238.505 848.062 238.505C853.982 238.505 859.783 236.839 864.801 233.697C869.818 230.555 873.851 226.065 876.438 220.739C879.024 215.413 880.06 209.467 879.427 203.58C878.793 197.693 876.517 192.103 872.857 187.449C877.23 181.888 879.608 175.017 879.608 167.942C879.608 160.867 877.23 153.997 872.857 148.435Z" fill="#57B894"/>
<path opacity="0.1" d="M816.517 167.942C816.506 175.019 818.885 181.893 823.268 187.449C819.608 192.103 817.331 197.693 816.698 203.58C816.065 209.467 817.1 215.413 819.687 220.739C822.273 226.065 826.306 230.555 831.324 233.697C836.342 236.839 842.142 238.505 848.062 238.505C853.982 238.505 859.783 236.839 864.801 233.697C869.818 230.555 873.851 226.065 876.438 220.739C879.024 215.413 880.06 209.467 879.427 203.58C878.793 197.693 876.517 192.103 872.857 187.449C877.085 182.081 816.517 164.401 816.517 167.942Z" fill="black"/>
<path d="M521.898 246.902C522.816 245.298 523.29 243.48 523.272 241.632C523.272 236.87 520.324 233.01 516.687 233.01C513.049 233.01 510.101 236.87 510.101 241.632C510.083 243.48 510.557 245.298 511.475 246.902C510.574 248.511 510.101 250.326 510.101 252.171C510.101 254.016 510.574 255.83 511.475 257.44C510.574 259.05 510.101 260.864 510.101 262.71C510.101 264.555 510.574 266.369 511.475 267.979C510.574 269.589 510.101 271.403 510.101 273.248C510.101 275.093 510.574 276.908 511.475 278.518C510.557 280.121 510.083 281.94 510.101 283.787C510.101 288.549 513.049 292.41 516.687 292.41C520.324 292.41 523.272 288.549 523.272 283.787C523.29 281.94 522.816 280.121 521.898 278.518C522.799 276.908 523.272 275.093 523.272 273.248C523.272 271.403 522.799 269.589 521.898 267.979C522.799 266.369 523.272 264.555 523.272 262.71C523.272 260.864 522.799 259.05 521.898 257.44C522.799 255.83 523.272 254.016 523.272 252.171C523.272 250.326 522.799 248.511 521.898 246.902Z" fill="#2B1E1D"/>
<path d="M516.686 239.716C520.324 239.716 523.272 235.856 523.272 231.094C523.272 226.331 520.324 222.471 516.686 222.471C513.049 222.471 510.101 226.331 510.101 231.094C510.101 235.856 513.049 239.716 516.686 239.716Z" fill="#232323"/>
<path d="M516.686 229.177C520.324 229.177 523.272 225.317 523.272 220.555C523.272 215.793 520.324 211.932 516.686 211.932C513.049 211.932 510.101 215.793 510.101 220.555C510.101 225.317 513.049 229.177 516.686 229.177Z" fill="#232323"/>
<path d="M541.34 148.435C542.24 147.29 543.059 146.083 543.793 144.824L526.488 141.982L545.203 142.121C546.999 138.214 547.978 133.982 548.082 129.684C548.185 125.385 547.411 121.111 545.806 117.122L520.697 130.149L543.853 113.125C541.684 109.376 538.766 106.113 535.281 103.541C531.796 100.969 527.818 99.1419 523.596 98.174C519.375 97.2061 514.999 97.1181 510.742 97.9153C506.484 98.7126 502.437 100.378 498.851 102.808C495.265 105.238 492.218 108.381 489.9 112.04C487.582 115.699 486.041 119.796 485.375 124.077C484.709 128.357 484.932 132.729 486.028 136.92C487.125 141.11 489.073 145.03 491.751 148.435C490.348 150.218 489.142 152.147 488.153 154.189L510.616 165.861L486.664 157.821C484.983 162.793 484.567 168.106 485.455 173.279C486.343 178.453 488.507 183.323 491.751 187.449C488.091 192.103 485.814 197.693 485.181 203.58C484.548 209.467 485.584 215.413 488.17 220.739C490.756 226.065 494.789 230.555 499.807 233.697C504.825 236.839 510.625 238.505 516.545 238.505C522.465 238.505 528.266 236.839 533.284 233.697C538.302 230.555 542.334 226.065 544.921 220.739C547.507 215.413 548.543 209.467 547.91 203.58C547.277 197.693 545 192.103 541.34 187.449C545.713 181.888 548.091 175.017 548.091 167.942C548.091 160.867 545.713 153.997 541.34 148.435Z" fill="#F2F2F2"/>
<path d="M485 167.942C484.989 175.019 487.368 181.893 491.751 187.449C488.091 192.103 485.814 197.693 485.181 203.58C484.548 209.467 485.584 215.413 488.17 220.739C490.757 226.065 494.789 230.555 499.807 233.697C504.825 236.839 510.625 238.505 516.545 238.505C522.465 238.505 528.266 236.839 533.284 233.697C538.302 230.555 542.334 226.065 544.921 220.739C547.507 215.413 548.543 209.467 547.91 203.58C547.277 197.693 545 192.103 541.34 187.449C545.568 182.081 485 164.401 485 167.942Z" fill="#F2F2F2"/>
<path d="M541.34 148.435C542.24 147.29 543.059 146.083 543.793 144.824L526.488 141.982L545.203 142.121C546.999 138.214 547.978 133.982 548.082 129.684C548.185 125.385 547.411 121.111 545.806 117.122L520.697 130.149L543.853 113.125C541.684 109.376 538.766 106.113 535.281 103.541C531.796 100.969 527.818 99.1419 523.596 98.174C519.375 97.2061 514.999 97.1181 510.742 97.9153C506.484 98.7126 502.437 100.378 498.851 102.808C495.265 105.238 492.218 108.381 489.9 112.04C487.582 115.699 486.041 119.796 485.375 124.077C484.709 128.357 484.932 132.729 486.028 136.92C487.125 141.11 489.073 145.03 491.751 148.435C490.348 150.218 489.142 152.147 488.153 154.189L510.616 165.861L486.664 157.821C484.983 162.793 484.567 168.106 485.455 173.279C486.343 178.453 488.507 183.323 491.751 187.449C488.091 192.103 485.814 197.693 485.181 203.58C484.548 209.467 485.584 215.413 488.17 220.739C490.756 226.065 494.789 230.555 499.807 233.697C504.825 236.839 510.625 238.505 516.545 238.505C522.465 238.505 528.266 236.839 533.284 233.697C538.302 230.555 542.334 226.065 544.921 220.739C547.507 215.413 548.543 209.467 547.91 203.58C547.277 197.693 545 192.103 541.34 187.449C545.713 181.888 548.091 175.017 548.091 167.942C548.091 160.867 545.713 153.997 541.34 148.435Z" fill="#57B894"/>
<path opacity="0.1" d="M485 167.942C484.989 175.019 487.368 181.893 491.751 187.449C488.091 192.103 485.814 197.693 485.181 203.58C484.548 209.467 485.584 215.413 488.17 220.739C490.757 226.065 494.789 230.555 499.807 233.697C504.825 236.839 510.625 238.505 516.545 238.505C522.465 238.505 528.266 236.839 533.284 233.697C538.302 230.555 542.334 226.065 544.921 220.739C547.507 215.413 548.543 209.467 547.91 203.58C547.277 197.693 545 192.103 541.34 187.449C545.568 182.081 485 164.401 485 167.942Z" fill="black"/>
<rect y="296" width="880" height="14" fill="#1D1D1D"/>
</svg>
