<svg viewBox="0 0 717 250" fill="none" xmlns="http://www.w3.org/2000/svg">
<g filter="url(#filter0_d_150_74)">
<rect x="140" y="99" width="463" height="2" fill="url(#paint0_linear_150_74)"/>
</g>
<g filter="url(#filter1_d_150_74)">
<rect x="139" y="110" width="463" height="2" fill="url(#paint1_linear_150_74)"/>
</g>
<g filter="url(#filter2_d_150_74)">
<rect x="140" y="88" width="463" height="2" fill="url(#paint2_linear_150_74)"/>
</g>
<rect width="481.673" height="15.8902" transform="matrix(1 0 -0.777146 0.62932 142.349 0)" fill="#1C1413"/>
<rect width="16" height="157.298" transform="matrix(0.788011 -0.615662 0 1 611 9.85059)" fill="#1C1413"/>
<g filter="url(#filter3_d_150_74)">
<rect x="319" y="109" width="7.2" height="51" fill="#FFE99F"/>
</g>
<g filter="url(#filter4_d_150_74)">
<rect x="456.7" y="19" width="7.1" height="60" fill="#FFE99F"/>
</g>
<rect width="658" height="75" transform="matrix(1 0 -0.777146 0.62932 58.2859 188)" fill="#121D23"/>
<rect width="626.561" height="61.9716" transform="matrix(1 0 -0.777146 0.62932 63.2214 195)" fill="#0E1417"/>
<rect width="613.093" height="50.8485" transform="matrix(1 0 -0.777146 0.62932 67.5022 203)" fill="#1D1D1D"/>
<path d="M657 235.5L716 188L716 198.5L657 247.5L657 235.5Z" fill="#0E1417"/>
<g filter="url(#filter5_d_150_74)">
<text fill="#FFE99F" xml:space="preserve" style="white-space: pre" font-family="Jersey 15" font-size="64" letter-spacing="0em"><tspan x="241" y="111.778">Search SVC</tspan></text>
</g>
<rect x="262" y="160" width="12" height="59" fill="#110F0F"/>
<rect x="259" y="160" width="12" height="59" fill="#181818"/>
<rect x="468" y="160" width="12" height="59" fill="#110F0F"/>
<rect x="465" y="160" width="12" height="59" fill="#181818"/>
<rect x="20" y="185" width="2" height="41" fill="#6A504A"/>
<rect x="15" y="169" width="9" height="37" fill="#CB5454"/>
<path d="M19.5 160L26.8612 172.75H12.1388L19.5 160Z" fill="#953333"/>
<path d="M19.5 160L26.8612 172.75H12.1388L19.5 160Z" fill="#953333"/>
<mask id="mask0_150_74" style="mask-type:alpha" maskUnits="userSpaceOnUse" x="15" y="169" width="9" height="37">
<rect x="15" y="169" width="9" height="37" fill="#CB5454"/>
</mask>
<g mask="url(#mask0_150_74)">
<rect width="24.6118" height="1.92964" transform="matrix(0.844787 -0.535102 0.575516 0.817791 8 185.016)" fill="#BDAF78"/>
<rect width="24.6118" height="1.92964" transform="matrix(0.844787 -0.535102 0.575516 0.817791 10 190.708)" fill="#BDAF78"/>
<rect width="24.6118" height="1.92964" transform="matrix(0.844787 -0.535102 0.575516 0.817791 10 197.349)" fill="#BDAF78"/>
<rect width="24.6118" height="1.92964" transform="matrix(0.844787 -0.535102 0.575516 0.817791 10 203.99)" fill="#BDAF78"/>
</g>
<rect x="106" y="147" width="2" height="41" fill="#6A504A"/>
<rect x="101" y="131" width="9" height="37" fill="#5482CB"/>
<path d="M105.5 122L112.861 134.75H98.1388L105.5 122Z" fill="#7DAFFF"/>
<path d="M105.5 122L112.861 134.75H98.1388L105.5 122Z" fill="#243550"/>
<mask id="mask1_150_74" style="mask-type:alpha" maskUnits="userSpaceOnUse" x="101" y="131" width="9" height="37">
<rect x="101" y="131" width="9" height="37" fill="#CB5454"/>
</mask>
<g mask="url(#mask1_150_74)">
<rect width="24.6118" height="1.92964" transform="matrix(0.844787 -0.535102 0.575516 0.817791 94 147.016)" fill="#BDAF78"/>
<rect width="24.6118" height="1.92964" transform="matrix(0.844787 -0.535102 0.575516 0.817791 96 152.708)" fill="#BDAF78"/>
<rect width="24.6118" height="1.92964" transform="matrix(0.844787 -0.535102 0.575516 0.817791 96 159.349)" fill="#BDAF78"/>
<rect width="24.6118" height="1.92964" transform="matrix(0.844787 -0.535102 0.575516 0.817791 96 165.99)" fill="#BDAF78"/>
</g>
<rect x="664" y="149" width="2" height="41" fill="#6A504A"/>
<rect x="659" y="133" width="9" height="37" fill="#318F5E"/>
<path d="M663.5 124L670.861 136.75H656.139L663.5 124Z" fill="#226743"/>
<path d="M663.5 124L670.861 136.75H656.139L663.5 124Z" fill="#226743"/>
<mask id="mask2_150_74" style="mask-type:alpha" maskUnits="userSpaceOnUse" x="659" y="133" width="9" height="37">
<rect x="659" y="133" width="9" height="37" fill="#CB5454"/>
</mask>
<g mask="url(#mask2_150_74)">
<rect width="24.6118" height="1.92964" transform="matrix(0.844787 -0.535102 0.575516 0.817791 652 149.016)" fill="#BDAF78"/>
<rect width="24.6118" height="1.92964" transform="matrix(0.844787 -0.535102 0.575516 0.817791 654 154.708)" fill="#BDAF78"/>
<rect width="24.6118" height="1.92964" transform="matrix(0.844787 -0.535102 0.575516 0.817791 654 161.349)" fill="#BDAF78"/>
<rect width="24.6118" height="1.92964" transform="matrix(0.844787 -0.535102 0.575516 0.817791 654 167.99)" fill="#BDAF78"/>
</g>
<rect x="135" y="15" width="472" height="147" stroke="#2B1E1D" stroke-width="10"/>
<defs>
<filter id="filter0_d_150_74" x="136" y="95" width="471" height="10" filterUnits="userSpaceOnUse" color-interpolation-filters="sRGB">
<feFlood flood-opacity="0" result="BackgroundImageFix"/>
<feColorMatrix in="SourceAlpha" type="matrix" values="0 0 0 0 0 0 0 0 0 0 0 0 0 0 0 0 0 0 127 0" result="hardAlpha"/>
<feOffset/>
<feGaussianBlur stdDeviation="2"/>
<feComposite in2="hardAlpha" operator="out"/>
<feColorMatrix type="matrix" values="0 0 0 0 0.382129 0 0 0 0 0.382129 0 0 0 0 0.382129 0 0 0 0.25 0"/>
<feBlend mode="normal" in2="BackgroundImageFix" result="effect1_dropShadow_150_74"/>
<feBlend mode="normal" in="SourceGraphic" in2="effect1_dropShadow_150_74" result="shape"/>
</filter>
<filter id="filter1_d_150_74" x="135" y="106" width="471" height="10" filterUnits="userSpaceOnUse" color-interpolation-filters="sRGB">
<feFlood flood-opacity="0" result="BackgroundImageFix"/>
<feColorMatrix in="SourceAlpha" type="matrix" values="0 0 0 0 0 0 0 0 0 0 0 0 0 0 0 0 0 0 127 0" result="hardAlpha"/>
<feOffset/>
<feGaussianBlur stdDeviation="2"/>
<feComposite in2="hardAlpha" operator="out"/>
<feColorMatrix type="matrix" values="0 0 0 0 0.382129 0 0 0 0 0.382129 0 0 0 0 0.382129 0 0 0 0.25 0"/>
<feBlend mode="normal" in2="BackgroundImageFix" result="effect1_dropShadow_150_74"/>
<feBlend mode="normal" in="SourceGraphic" in2="effect1_dropShadow_150_74" result="shape"/>
</filter>
<filter id="filter2_d_150_74" x="136" y="84" width="471" height="10" filterUnits="userSpaceOnUse" color-interpolation-filters="sRGB">
<feFlood flood-opacity="0" result="BackgroundImageFix"/>
<feColorMatrix in="SourceAlpha" type="matrix" values="0 0 0 0 0 0 0 0 0 0 0 0 0 0 0 0 0 0 127 0" result="hardAlpha"/>
<feOffset/>
<feGaussianBlur stdDeviation="2"/>
<feComposite in2="hardAlpha" operator="out"/>
<feColorMatrix type="matrix" values="0 0 0 0 0.382129 0 0 0 0 0.382129 0 0 0 0 0.382129 0 0 0 0.25 0"/>
<feBlend mode="normal" in2="BackgroundImageFix" result="effect1_dropShadow_150_74"/>
<feBlend mode="normal" in="SourceGraphic" in2="effect1_dropShadow_150_74" result="shape"/>
</filter>
<filter id="filter3_d_150_74" x="301.4" y="91.4" width="42.4" height="86.2" filterUnits="userSpaceOnUse" color-interpolation-filters="sRGB">
<feFlood flood-opacity="0" result="BackgroundImageFix"/>
<feColorMatrix in="SourceAlpha" type="matrix" values="0 0 0 0 0 0 0 0 0 0 0 0 0 0 0 0 0 0 127 0" result="hardAlpha"/>
<feOffset/>
<feGaussianBlur stdDeviation="8.8"/>
<feComposite in2="hardAlpha" operator="out"/>
<feColorMatrix type="matrix" values="0 0 0 0 1 0 0 0 0 0.913725 0 0 0 0 0.623529 0 0 0 0.5 0"/>
<feBlend mode="normal" in2="BackgroundImageFix" result="effect1_dropShadow_150_74"/>
<feBlend mode="normal" in="SourceGraphic" in2="effect1_dropShadow_150_74" result="shape"/>
</filter>
<filter id="filter4_d_150_74" x="439.1" y="1.4" width="42.3001" height="95.2" filterUnits="userSpaceOnUse" color-interpolation-filters="sRGB">
<feFlood flood-opacity="0" result="BackgroundImageFix"/>
<feColorMatrix in="SourceAlpha" type="matrix" values="0 0 0 0 0 0 0 0 0 0 0 0 0 0 0 0 0 0 127 0" result="hardAlpha"/>
<feOffset/>
<feGaussianBlur stdDeviation="8.8"/>
<feComposite in2="hardAlpha" operator="out"/>
<feColorMatrix type="matrix" values="0 0 0 0 1 0 0 0 0 0.913725 0 0 0 0 0.623529 0 0 0 0.5 0"/>
<feBlend mode="normal" in2="BackgroundImageFix" result="effect1_dropShadow_150_74"/>
<feBlend mode="normal" in="SourceGraphic" in2="effect1_dropShadow_150_74" result="shape"/>
</filter>
<filter id="filter5_d_150_74" x="225.77" y="58.8444" width="300.654" height="70.7556" filterUnits="userSpaceOnUse" color-interpolation-filters="sRGB">
<feFlood flood-opacity="0" result="BackgroundImageFix"/>
<feColorMatrix in="SourceAlpha" type="matrix" values="0 0 0 0 0 0 0 0 0 0 0 0 0 0 0 0 0 0 127 0" result="hardAlpha"/>
<feOffset/>
<feGaussianBlur stdDeviation="8.8"/>
<feComposite in2="hardAlpha" operator="out"/>
<feColorMatrix type="matrix" values="0 0 0 0 1 0 0 0 0 0.913725 0 0 0 0 0.623529 0 0 0 0.5 0"/>
<feBlend mode="normal" in2="BackgroundImageFix" result="effect1_dropShadow_150_74"/>
<feBlend mode="normal" in="SourceGraphic" in2="effect1_dropShadow_150_74" result="shape"/>
</filter>
<linearGradient id="paint0_linear_150_74" x1="371.5" y1="99" x2="371.5" y2="101" gradientUnits="userSpaceOnUse">
<stop stop-color="#141414"/>
<stop offset="0.58" stop-color="#2B1E1D"/>
<stop offset="1" stop-color="#141414"/>
</linearGradient>
<linearGradient id="paint1_linear_150_74" x1="370.5" y1="110" x2="370.5" y2="112" gradientUnits="userSpaceOnUse">
<stop stop-color="#141414"/>
<stop offset="0.58" stop-color="#2B1E1D"/>
<stop offset="1" stop-color="#141414"/>
</linearGradient>
<linearGradient id="paint2_linear_150_74" x1="371.5" y1="88" x2="371.5" y2="90" gradientUnits="userSpaceOnUse">
<stop stop-color="#141414"/>
<stop offset="0.58" stop-color="#2B1E1D"/>
<stop offset="1" stop-color="#141414"/>
</linearGradient>
</defs>
</svg>
