<svg viewBox="0 0 74 83" fill="none" xmlns="http://www.w3.org/2000/svg">
<mask id="mask0_71_2" style="mask-type:luminance" maskUnits="userSpaceOnUse" x="0" y="0" width="74" height="83">
<path d="M0 0H73.2082V82.2703H0V0Z" fill="white"/>
</mask>
<g mask="url(#mask0_71_2)">
<path d="M59.7194 5.85114C60.8873 5.85114 61.7239 6.11119 62.2292 6.6313C62.7345 7.15327 62.9872 8.14074 62.9872 9.59372C62.9872 10.5729 62.8845 11.8278 62.679 13.3585C62.4736 14.8911 62.1339 17.0002 61.6601 19.6859C60.8401 24.6446 60.1932 28.9406 59.7194 32.574C59.4343 34.8488 59.2918 36.7442 59.2918 38.2601C59.2918 39.6816 59.8128 40.3924 60.8549 40.3924C61.6767 40.3924 62.6642 39.9731 63.8173 39.1346C64.9705 38.298 66.2421 36.9635 67.6321 35.1311C68.0745 34.5314 68.5641 34.2315 69.1008 34.2315C69.5432 34.2315 69.9301 34.4444 70.2614 34.8701C70.5927 35.2977 70.7583 35.7798 70.7583 36.3166C70.7583 36.8219 70.6556 37.3346 70.4502 37.8547C70.2447 38.3767 69.9051 38.9699 69.4312 39.6344C67.9153 41.75 66.2254 43.3844 64.3615 44.5375C62.4976 45.6907 60.6337 46.2672 58.7698 46.2672C57.0337 46.2672 55.7001 45.7138 54.769 44.6069C53.8362 43.5019 53.3697 41.8916 53.3697 39.776C53.3697 38.9227 53.4493 37.9195 53.6085 36.7664C53.7658 35.6132 53.9074 34.673 54.0333 33.9455C54.1592 33.22 54.2536 32.7156 54.3165 32.4324C52.5155 37.5799 50.4943 41.1725 48.2528 43.2104C46.0095 45.2483 43.545 46.2672 40.8593 46.2672C38.8066 46.2672 37.1879 45.5407 36.0033 44.0877C34.8188 42.6348 34.2265 40.5811 34.2265 37.9269C34.2265 36.8848 34.369 35.5901 34.654 34.0427C33.0733 38.4017 31.2252 41.5288 29.1095 43.4242C26.9939 45.3195 24.5618 46.2672 21.8132 46.2672C19.6013 46.2672 17.9031 45.5565 16.7185 44.1349C15.5339 42.7134 14.9416 40.7237 14.9416 38.1657C14.9416 36.7756 15.147 35.0857 15.5579 33.096L18.4482 19.5443C18.7647 17.9637 18.9229 16.6051 18.9229 15.4686C18.9229 14.1415 18.6147 13.1466 17.9984 12.484C17.382 11.8213 16.5213 11.49 15.4163 11.49C14.3743 11.49 13.3562 11.8371 12.3623 12.5312C11.3665 13.2253 10.1893 14.3784 8.8307 15.9906C8.45126 16.4329 8.02462 16.6541 7.55078 16.6541C7.13988 16.6541 6.81596 16.4644 6.57904 16.085C6.34212 15.7055 6.22366 15.1845 6.22366 14.5218C6.22366 13.2891 6.52351 12.31 7.12322 11.5844C8.76685 9.5928 10.3947 8.13889 12.0069 7.22268C13.6172 6.30832 15.3062 5.85114 17.0738 5.85114C19.7595 5.85114 21.8604 6.64796 23.3763 8.24162C24.8922 9.83712 25.6501 11.9777 25.6501 14.6634C25.6501 16.5273 25.2716 19.2278 24.5146 22.765L22.6183 31.4357C22.5554 31.7207 22.4453 32.226 22.2879 32.9516C22.1287 33.679 22.002 34.3666 21.9076 35.0145C21.8132 35.6623 21.766 36.3018 21.766 36.933C21.766 38.038 21.9797 38.8672 22.4073 39.4206C22.833 39.974 23.4401 40.2508 24.2286 40.2508C25.7131 40.2508 27.2688 39.2947 28.8958 37.3827C30.5227 35.4726 32.071 32.3056 33.5407 27.8819C35.0085 23.46 36.2005 17.711 37.1167 10.6349C37.3388 8.73952 37.7266 7.46793 38.28 6.8201C38.8316 6.17412 39.7237 5.85114 40.9565 5.85114C42.03 5.85114 42.812 6.10379 43.3025 6.60909C43.7912 7.1144 44.0355 8.06208 44.0355 9.45213C44.0355 10.7459 43.8615 12.4432 43.5135 14.544C43.1655 16.6449 42.7232 19.1168 42.1864 21.9598C40.7334 29.6042 40.0069 34.5323 40.0069 36.7442C40.0069 37.9436 40.2364 38.8274 40.6955 39.3956C41.1526 39.9657 41.8393 40.2508 42.7556 40.2508C44.3029 40.2508 45.8984 39.3734 47.5421 37.6187C49.1839 35.8659 50.7868 32.7545 52.3508 28.2845C53.9148 23.8163 55.2179 17.7758 56.26 10.1629C56.4802 8.55072 56.8042 7.42906 57.2317 6.79789C57.6574 6.16672 58.4867 5.85114 59.7194 5.85114Z" fill="white"/>
<path d="M14.5549 77.6625C13.3869 77.6625 12.5503 77.4025 12.045 76.8824C11.5397 76.3604 11.287 75.3729 11.287 73.92C11.287 72.9408 11.3898 71.6859 11.5952 70.1552C11.8007 68.6226 12.1403 66.5134 12.6142 63.8277C13.4341 58.8691 14.081 54.5731 14.5549 50.9397C14.8399 48.6649 14.9824 46.7695 14.9824 45.2536C14.9824 43.8321 14.4614 43.1213 13.4193 43.1213C12.5975 43.1213 11.61 43.5406 10.4569 44.379C9.30377 45.2157 8.03218 46.5502 6.64213 48.3826C6.19975 48.9823 5.71018 49.2822 5.17341 49.2822C4.73104 49.2822 4.34419 49.0693 4.01288 48.6436C3.68156 48.216 3.5159 47.7339 3.5159 47.1971C3.5159 46.6918 3.61863 46.1791 3.82408 45.659C4.02953 45.137 4.36918 44.5438 4.84302 43.8793C6.35894 41.7637 8.04884 40.1293 9.91273 38.9762C11.7766 37.823 13.6405 37.2465 15.5044 37.2465C17.2406 37.2465 18.5742 37.7999 19.5052 38.9067C20.4381 40.0118 20.9045 41.6221 20.9045 43.7377C20.9045 44.591 20.8249 45.5942 20.6657 46.7473C20.5084 47.9004 20.3668 48.8407 20.2409 49.5681C20.1151 50.2937 20.0207 50.7981 19.9578 51.0813C21.7587 45.9338 23.7799 42.3412 26.0214 40.3033C28.2647 38.2654 30.7293 37.2465 33.415 37.2465C35.4677 37.2465 37.0863 37.973 38.2709 39.4259C39.4555 40.8789 40.0478 42.9325 40.0478 45.5868C40.0478 46.6288 39.9053 47.9236 39.6202 49.471C41.2009 45.112 43.0491 41.9849 45.1647 40.0895C47.2803 38.1941 49.7124 37.2465 52.4611 37.2465C54.673 37.2465 56.3712 37.9572 57.5558 39.3787C58.7404 40.8003 59.3327 42.79 59.3327 45.348C59.3327 46.7381 59.1272 48.428 58.7163 50.4177L55.8261 63.9693C55.5096 65.55 55.3513 66.9086 55.3513 68.0451C55.3513 69.3722 55.6595 70.3671 56.2759 71.0297C56.8922 71.6924 57.7529 72.0237 58.8579 72.0237C59.9 72.0237 60.918 71.6766 61.912 70.9825C62.9078 70.2884 64.085 69.1353 65.4435 67.5231C65.823 67.0807 66.2496 66.8596 66.7235 66.8596C67.1344 66.8596 67.4583 67.0493 67.6952 67.4287C67.9321 67.8082 68.0506 68.3292 68.0506 68.9918C68.0506 70.2246 67.7507 71.2037 67.151 71.9293C65.5074 73.9209 63.8795 75.3748 62.2673 76.291C60.657 77.2054 58.968 77.6625 57.2004 77.6625C54.5147 77.6625 52.4139 76.8657 50.898 75.2721C49.3821 73.6766 48.6241 71.536 48.6241 68.8502C48.6241 66.9864 49.0026 64.2858 49.7596 60.7487L51.6559 52.078C51.7189 51.793 51.829 51.2876 51.9863 50.5621C52.1455 49.8347 52.2723 49.147 52.3667 48.4992C52.4611 47.8514 52.5083 47.2119 52.5083 46.5807C52.5083 45.4757 52.2945 44.6465 51.8669 44.0931C51.4412 43.5396 50.8341 43.2629 50.0456 43.2629C48.5612 43.2629 47.0055 44.2189 45.3785 46.1309C43.7515 48.0411 42.2032 51.2081 40.7336 55.6318C39.2658 60.0537 38.0738 65.8027 37.1576 72.8788C36.9354 74.7742 36.5477 76.0458 35.9942 76.6936C35.4427 77.3396 34.5505 77.6625 33.3178 77.6625C32.2443 77.6625 31.4622 77.4099 30.9717 76.9046C30.4831 76.3993 30.2388 75.4516 30.2388 74.0616C30.2388 72.7678 30.4128 71.0704 30.7607 68.9696C31.1087 66.8688 31.5511 64.3969 32.0879 61.5539C33.5408 53.9095 34.2673 48.9814 34.2673 46.7695C34.2673 45.5701 34.0378 44.6863 33.5788 44.1181C33.1216 43.548 32.4349 43.2629 31.5187 43.2629C29.9713 43.2629 28.3758 44.1403 26.7322 45.895C25.0904 47.6478 23.4875 50.7592 21.9234 55.2292C20.3594 59.6974 19.0563 65.7379 18.0143 73.3508C17.794 74.963 17.4701 76.0846 17.0425 76.7158C16.6168 77.347 15.7876 77.6625 14.5549 77.6625Z" fill="white"/>
<path fill-rule="evenodd" clip-rule="evenodd" d="M17.3245 43.6738C15.2752 45.6256 16.4459 50.2124 17.6169 50.9931C18.7879 51.7738 22.9842 49.8219 24.3505 48.3581C25.7167 46.8943 23.9115 43.4301 25.8144 42.2103C27.7174 40.9905 33.719 39.5267 35.7683 41.0392C37.8177 42.5517 36.8419 50.7488 38.1105 51.2855C39.3791 51.8222 40.5988 46.2113 43.3801 44.2595C46.1613 42.3078 52.5534 42.0149 54.7979 39.5752C57.0424 37.1356 58.4086 29.3286 56.8472 29.6214C55.2858 29.9141 48.7961 40.1118 45.4293 41.3316C42.0626 42.5514 38.4031 38.5016 36.6465 36.9402C34.89 35.3789 36.0124 31.5731 34.8901 31.9635C33.7679 32.3539 32.8406 37.3307 29.913 39.2824C26.9854 41.2341 19.3739 41.722 17.3245 43.6738Z" fill="white"/>
</g>
</svg>
