<svg viewBox="0 0 111 174" fill="none" xmlns="http://www.w3.org/2000/svg" xmlns:xlink="http://www.w3.org/1999/xlink">
<mask id="path-1-inside-1_108_71" fill="white">
<path d="M11.1432 163H110.878L99.7349 169.696H1.35303e-05L11.1432 163Z"/>
</mask>
<path d="M11.1432 163H110.878L99.7349 169.696H1.35303e-05L11.1432 163Z" fill="#2B1E1D"/>
<path d="M99.7349 169.696L97.1634 171.241H100.163L102.735 169.696H99.7349ZM1.35303e-05 169.696H-2.99999L-5.57149 171.241H-2.57149L1.35303e-05 169.696ZM107.878 163L96.7349 169.696H102.735L113.878 163H107.878ZM102.306 168.151H2.57152L-2.57149 171.241H97.1634L102.306 168.151ZM3.00001 169.696L14.1432 163H8.14319L-2.99999 169.696H3.00001Z" fill="#1B1212" mask="url(#path-1-inside-1_108_71)"/>
<mask id="path-3-inside-2_108_71" fill="white">
<path d="M14.0661 163H108.771L100.45 168H5.74467L14.0661 163Z"/>
</mask>
<path d="M14.0661 163H108.771L100.45 168H5.74467L14.0661 163Z" fill="#2B1E1D"/>
<path d="M11.4946 164.545H106.2L111.343 161.455H16.6376L11.4946 164.545Z" fill="#150F0F" mask="url(#path-3-inside-2_108_71)"/>
<rect y="169.5" width="100" height="4" fill="#1B1212"/>
<rect width="12.6642" height="4.83848" transform="matrix(0.850187 -0.52648 -0.00405004 0.999992 100.021 168.689)" fill="#1B1212"/>
<rect x="13" y="2" width="96" height="159" stroke="#121D23" stroke-width="4"/>
<mask id="mask0_108_71" style="mask-type:alpha" maskUnits="userSpaceOnUse" x="14" y="3" width="94" height="157">
<rect x="14" y="3" width="94" height="157" fill="#0E1417"/>
</mask>
<g mask="url(#mask0_108_71)">
<rect x="14.0001" y="4.00006" width="94" height="156" fill="#0E1417"/>
<g opacity="0.35">
<rect x="24" y="30.8435" width="15" height="2.58362" transform="rotate(-41.0133 24 30.8435)" fill="white"/>
<rect x="87.5355" y="21" width="15" height="2.72487" transform="rotate(45 87.5355 21)" fill="white"/>
<rect x="25.9268" y="108" width="15" height="2.72487" transform="rotate(45 25.9268 108)" fill="white"/>
<rect x="97.5334" y="109.927" width="15" height="2.72487" transform="rotate(135 97.5334 109.927)" fill="white"/>
<rect x="28" y="24" width="66" height="93" fill="url(#pattern0_108_71)"/>
</g>
<rect opacity="0.5" x="36.7616" y="166.348" width="118.596" height="10.8024" transform="rotate(-51.3341 36.7616 166.348)" fill="#203A47"/>
<rect opacity="0.5" x="21.7897" y="164.648" width="142.736" height="5.68172" transform="rotate(-51.3341 21.7897 164.648)" fill="#203A47"/>
<rect x="59" y="4" width="5" height="156" fill="#121D23"/>
<rect x="59" y="4" width="5" height="156" fill="#121D23"/>
<rect x="59" y="4" width="5" height="156" fill="#121D23"/>
<rect x="108" y="83.0001" width="4" height="95" transform="rotate(90 108 83.0001)" fill="#121D23"/>
<rect x="108" y="83.0001" width="4" height="95" transform="rotate(90 108 83.0001)" fill="#121D23"/>
<rect x="108" y="83.0001" width="4" height="95" transform="rotate(90 108 83.0001)" fill="#121D23"/>
<rect x="13" y="2" width="96" height="159" stroke="#121D23" stroke-width="4"/>
</g>
<defs>
<pattern id="pattern0_108_71" patternContentUnits="objectBoundingBox" width="1" height="1">
<use xlink:href="#image0_108_71" transform="matrix(0.00221239 0 0 0.00157008 0 -0.00242649)"/>
</pattern>
<image id="image0_108_71" width="452" height="640" xlink:href="/images/your_name.webp"/>
</defs>
</svg>
