<svg width="110" height="172" viewBox="0 0 110 172" fill="none" xmlns="http://www.w3.org/2000/svg">
<rect x="11" y="11" width="86" height="147" fill="#0E1417"/>
<rect x="50" y="11" width="8" height="150" fill="#121D23"/>
<rect x="50" y="11" width="8" height="150" fill="#121D23"/>
<rect x="50" y="11" width="8" height="150" fill="#121D23"/>
<rect x="97" y="81" width="8" height="86" transform="rotate(90 97 81)" fill="#121D23"/>
<rect x="97" y="81" width="8" height="86" transform="rotate(90 97 81)" fill="#121D23"/>
<rect x="97" y="81" width="8" height="86" transform="rotate(90 97 81)" fill="#121D23"/>
<rect y="161" width="110" height="11" fill="#2B1E1D"/>
<g opacity="0.5">
<rect x="62" y="128" width="29" height="29" fill="black"/>
<rect x="64" y="130" width="7" height="7" fill="#FF5151"/>
<rect x="73" y="130" width="7" height="7" fill="white"/>
<path d="M82 130H89V137H82V130Z" fill="#FF5151"/>
<rect x="64" y="139" width="7" height="7" fill="#FF5151"/>
<rect x="73" y="139" width="7" height="7" fill="#1846FF"/>
<path d="M82 139H89V146H82V139Z" fill="#FF7824"/>
<rect x="64" y="148" width="7" height="7" fill="#E2FF51"/>
<rect x="73" y="148" width="7" height="7" fill="#FF5151"/>
<path d="M82 148H89V155H82V148Z" fill="#298B03"/>
</g>
<rect x="10.5" y="5.5" width="89" height="152" stroke="#121D23" stroke-width="11"/>
</svg>
