<svg viewBox="0 0 111 174" fill="none" xmlns="http://www.w3.org/2000/svg" xmlns:xlink="http://www.w3.org/1999/xlink">
<mask id="path-1-inside-1_108_43" fill="white">
<path d="M11.1432 163H110.878L99.7349 169.696H1.35303e-05L11.1432 163Z"/>
</mask>
<path d="M11.1432 163H110.878L99.7349 169.696H1.35303e-05L11.1432 163Z" fill="#2B1E1D"/>
<path d="M99.7349 169.696L97.1634 171.241H100.163L102.735 169.696H99.7349ZM1.35303e-05 169.696H-2.99999L-5.57149 171.241H-2.57149L1.35303e-05 169.696ZM107.878 163L96.7349 169.696H102.735L113.878 163H107.878ZM102.306 168.151H2.57152L-2.57149 171.241H97.1634L102.306 168.151ZM3.00001 169.696L14.1432 163H8.14319L-2.99999 169.696H3.00001Z" fill="#1B1212" mask="url(#path-1-inside-1_108_43)"/>
<mask id="path-3-inside-2_108_43" fill="white">
<path d="M14.0661 163H108.771L100.45 168H5.74467L14.0661 163Z"/>
</mask>
<path d="M14.0661 163H108.771L100.45 168H5.74467L14.0661 163Z" fill="#2B1E1D"/>
<path d="M11.4946 164.545H106.2L111.343 161.455H16.6376L11.4946 164.545Z" fill="#150F0F" mask="url(#path-3-inside-2_108_43)"/>
<rect y="169.5" width="100" height="4" fill="#1B1212"/>
<rect width="12.6642" height="4.83848" transform="matrix(0.850187 -0.52648 -0.00405004 0.999992 100.021 168.689)" fill="#1B1212"/>
<rect x="13" y="2" width="96" height="159" stroke="#121D23" stroke-width="4"/>
<mask id="mask0_108_43" style="mask-type:alpha" maskUnits="userSpaceOnUse" x="14" y="3" width="94" height="157">
<rect x="14" y="3" width="94" height="157" fill="#0E1417"/>
</mask>
<g mask="url(#mask0_108_43)">
<rect x="14.0001" y="4.00006" width="94" height="156" fill="#0E1417"/>
<rect opacity="0.5" x="36.7616" y="166.348" width="118.596" height="10.8024" transform="rotate(-51.3341 36.7616 166.348)" fill="#203A47"/>
<rect opacity="0.5" x="21.7897" y="164.648" width="142.736" height="5.68172" transform="rotate(-51.3341 21.7897 164.648)" fill="#203A47"/>
<g opacity="0.5">
<path d="M46.0887 101.109L48.6304 94.8325H56.475C58.8112 94.8325 61.326 94.6828 63.5008 94.4415C65.6483 94.2032 67.5478 93.867 68.6039 93.4657C73.7535 91.5111 78.099 86.8413 80.6294 81.7151C83.1478 76.6133 83.9827 70.8116 81.7332 66.5993L81.7331 66.5992C81.0975 65.4093 80.1924 64.4561 78.729 63.7182C77.2977 62.9964 75.352 62.4902 72.6439 62.1253C67.2314 61.396 58.4995 61.2 44.0943 61.2H16.1609H15.6353L15.4266 61.6823L12.1932 69.1556C12.1932 69.1557 12.1932 69.1557 12.1931 69.1557C11.2994 71.2206 10.4856 73.2307 9.89382 74.8083C9.59829 75.5962 9.3555 76.2833 9.18544 76.8186C9.10061 77.0857 9.03118 77.3234 8.98212 77.5214C8.93872 77.6967 8.89264 77.911 8.89264 78.0975C8.89264 78.6852 9.32479 79.0449 9.59855 79.2193C9.91136 79.4185 10.3109 79.5684 10.7332 79.6826C11.5893 79.9142 12.7259 80.0483 13.9454 80.0483H16.9917L15.2494 84.1729C15.2494 84.173 15.2493 84.173 15.2493 84.173C14.2534 86.5299 13.6318 87.6686 12.8299 88.3372C12.0543 88.9837 11.0133 89.2675 8.86552 89.5429C6.7291 89.8166 5.241 90.1418 4.0149 91.1593C2.82478 92.1471 1.9703 93.7192 0.821404 96.1553L0.821325 96.1554C-0.618286 99.2097 -2.19826 102.995 -2.68332 104.578C-2.68333 104.578 -2.68334 104.578 -2.68336 104.578L-3.53288 107.35L-3.84991 108.385H-2.768H19.9169H42.603H43.1421L43.3445 107.885L46.0887 101.109Z" stroke="white" stroke-width="1.6"/>
<rect x="-4" y="62" width="87.2414" height="46" fill="url(#pattern0_108_43)"/>
</g>
<rect opacity="0.5" x="72.5" y="132.5" width="35" height="35" rx="17.5" fill="url(#pattern1_108_43)" stroke="white"/>
<rect x="33.6066" y="16" width="83.2848" height="17.7987" transform="rotate(15 33.6066 16)" fill="url(#pattern2_108_43)" fill-opacity="0.5"/>
<rect x="33.9602" y="16.6124" width="82.2848" height="16.7987" transform="rotate(15 33.9602 16.6124)" stroke="white" stroke-opacity="0.5"/>
<rect x="59" y="4" width="5" height="156" fill="#121D23"/>
<rect x="59" y="4" width="5" height="156" fill="#121D23"/>
<rect x="59" y="4" width="5" height="156" fill="#121D23"/>
<rect x="108" y="83.0001" width="4" height="95" transform="rotate(90 108 83.0001)" fill="#121D23"/>
<rect x="108" y="83.0001" width="4" height="95" transform="rotate(90 108 83.0001)" fill="#121D23"/>
<rect x="108" y="83.0001" width="4" height="95" transform="rotate(90 108 83.0001)" fill="#121D23"/>
</g>
<defs>
<pattern id="pattern0_108_43" patternContentUnits="objectBoundingBox" width="1" height="1">
<use xlink:href="#image0_108_43" transform="matrix(0.000390625 0 0 0.000740841 0 -0.00784617)"/>
</pattern>
<pattern id="pattern1_108_43" patternContentUnits="objectBoundingBox" width="1" height="1">
<use xlink:href="#image1_108_43" transform="scale(0.00130208)"/>
</pattern>
<pattern id="pattern2_108_43" patternContentUnits="objectBoundingBox" width="1" height="1">
<use xlink:href="#image2_108_43" transform="matrix(0.00117449 0 0 0.00549573 -0.0863952 -2.22577)"/>
</pattern>
<image id="image0_108_43" width="2560" height="1371" xlink:href="/images/purdue.png"/>
<image id="image1_108_43" width="768" height="768" xlink:href="/images/coke.png"/>
<image id="image2_108_43" width="1000" height="1000" xlink:href="/images/blackpink.png"/>
</defs>
</svg>
